G04 ---------------------------- Layer name :TOP SILK LAYER*
G04 EasyEDA v5.8.22, Sun, 16 Dec 2018 15:14:45 GMT*
G04 ac97927f3a924e98870e2e1cac9490ee*
G04 Gerber Generator version 0.2*
G04 Scale: 100 percent, Rotated: No, Reflected: No *
G04 Dimensions in millimeters *
G04 leading zeros omitted , absolute positions ,3 integer and 3 decimal *
%FSLAX33Y33*%
%MOMM*%
G90*
G71D02*

%ADD10C,0.254000*%
%ADD33C,0.200660*%
%ADD34C,0.228600*%
%ADD35C,0.200000*%
%ADD36C,0.119990*%
%ADD37C,0.599999*%
%ADD38C,0.299999*%
%ADD39C,0.127000*%
%ADD40C,0.203200*%
%ADD41C,0.203000*%
%ADD42C,0.177800*%
%ADD43C,0.101600*%
%ADD44C,0.178003*%

%LPD*%
G54D10*
G01X86212Y31173D02*
G01X86212Y29159D01*
G01X50812Y29159D01*
G01X50812Y34457D01*
G01X86212Y34457D01*
G01X86212Y32443D01*
G01X97221Y24810D02*
G01X92141Y24810D01*
G01X92141Y24810D02*
G01X92141Y25572D01*
G01X92141Y25572D02*
G01X92141Y26334D01*
G01X92141Y26334D02*
G01X97221Y26334D01*
G01X97221Y26334D02*
G01X97221Y25572D01*
G01X97221Y25572D02*
G01X97221Y24810D01*
G01X92141Y25572D02*
G01X91887Y25572D01*
G01X97221Y25572D02*
G01X97475Y25572D01*
G54D33*
G01X16555Y33764D02*
G01X16555Y28684D01*
G01X19095Y28684D01*
G01X19095Y33764D01*
G01X16555Y33764D01*
G01X76766Y43444D02*
G01X71686Y43444D01*
G01X71686Y40904D01*
G01X76766Y40904D01*
G01X76766Y43444D01*
G01X76766Y40444D02*
G01X71686Y40444D01*
G01X71686Y37904D01*
G01X76766Y37904D01*
G01X76766Y40444D01*
G54D10*
G01X62301Y37838D02*
G01X68600Y37838D01*
G01X62301Y42334D02*
G01X68600Y42334D01*
G54D34*
G01X92138Y30492D02*
G01X97218Y30492D01*
G01X97218Y28206D01*
G01X92138Y28206D01*
G01X92138Y30492D01*
G01X96583Y30492D02*
G01X96583Y28206D01*
G54D10*
G01X65920Y59540D02*
G01X76080Y59540D01*
G01X76080Y54460D01*
G01X65920Y54460D01*
G01X65920Y59540D01*
G01X24269Y47759D02*
G01X29349Y47759D01*
G01X29349Y47759D02*
G01X29349Y46997D01*
G01X29349Y46997D02*
G01X29349Y46235D01*
G01X29349Y46235D02*
G01X24269Y46235D01*
G01X24269Y46235D02*
G01X24269Y46997D01*
G01X24269Y46997D02*
G01X24269Y47759D01*
G01X29349Y46997D02*
G01X29603Y46997D01*
G01X24269Y46997D02*
G01X24015Y46997D01*
G01X24272Y44762D02*
G01X29352Y44762D01*
G01X29352Y44762D02*
G01X29352Y44000D01*
G01X29352Y44000D02*
G01X29352Y43238D01*
G01X29352Y43238D02*
G01X24272Y43238D01*
G01X24272Y43238D02*
G01X24272Y44000D01*
G01X24272Y44000D02*
G01X24272Y44762D01*
G01X29352Y44000D02*
G01X29606Y44000D01*
G01X24272Y44000D02*
G01X24018Y44000D01*
G01X53070Y59540D02*
G01X63230Y59540D01*
G01X63230Y54460D01*
G01X53070Y54460D01*
G01X53070Y59540D01*
G01X50380Y54457D02*
G01X40220Y54457D01*
G01X40220Y59537D01*
G01X50380Y59537D01*
G01X50380Y54457D01*
G01X31762Y19540D02*
G01X31762Y14460D01*
G01X31762Y14460D02*
G01X31000Y14460D01*
G01X31000Y14460D02*
G01X30238Y14460D01*
G01X30238Y14460D02*
G01X30238Y19540D01*
G01X30238Y19540D02*
G01X31000Y19540D01*
G01X31000Y19540D02*
G01X31762Y19540D01*
G01X31000Y14460D02*
G01X31000Y14206D01*
G01X31000Y19540D02*
G01X31000Y19794D01*
G01X101940Y47599D02*
G01X110540Y47599D01*
G01X110540Y44800D02*
G01X110540Y47599D01*
G01X101940Y44800D02*
G01X110540Y44800D01*
G01X101940Y44800D02*
G01X101940Y47599D01*
G01X92141Y45557D02*
G01X97221Y45557D01*
G01X97221Y45557D02*
G01X97221Y44795D01*
G01X97221Y44795D02*
G01X97221Y44033D01*
G01X97221Y44033D02*
G01X92141Y44033D01*
G01X92141Y44033D02*
G01X92141Y44795D01*
G01X92141Y44795D02*
G01X92141Y45557D01*
G01X97221Y44795D02*
G01X97475Y44795D01*
G01X92141Y44795D02*
G01X91887Y44795D01*
G01X92141Y41983D02*
G01X97221Y41983D01*
G01X97221Y41983D02*
G01X97221Y41221D01*
G01X97221Y41221D02*
G01X97221Y40459D01*
G01X97221Y40459D02*
G01X92141Y40459D01*
G01X92141Y40459D02*
G01X92141Y41221D01*
G01X92141Y41221D02*
G01X92141Y41983D01*
G01X97221Y41221D02*
G01X97475Y41221D01*
G01X92141Y41221D02*
G01X91887Y41221D01*
G01X107020Y53248D02*
G01X107020Y60746D01*
G01X91920Y53248D02*
G01X91920Y60746D01*
G01X107020Y53248D02*
G01X91920Y53248D01*
G01X107020Y60746D02*
G01X91920Y60746D01*
G01X33012Y15019D02*
G01X33012Y18978D01*
G01X38239Y14460D02*
G01X38239Y19540D01*
G01X38239Y19540D02*
G01X39001Y19540D01*
G01X39001Y19540D02*
G01X39763Y19540D01*
G01X39763Y19540D02*
G01X39763Y14460D01*
G01X39763Y14460D02*
G01X39001Y14460D01*
G01X39001Y14460D02*
G01X38239Y14460D01*
G01X39001Y19540D02*
G01X39001Y19794D01*
G01X39001Y14460D02*
G01X39001Y14206D01*
G54D35*
G01X6286Y12077D02*
G01X2603Y12077D01*
G01X2603Y17792D01*
G01X2656Y17919D01*
G01X6159Y17919D01*
G54D10*
G01X97221Y21236D02*
G01X92141Y21236D01*
G01X92141Y21236D02*
G01X92141Y21998D01*
G01X92141Y21998D02*
G01X92141Y22760D01*
G01X92141Y22760D02*
G01X97221Y22760D01*
G01X97221Y22760D02*
G01X97221Y21998D01*
G01X97221Y21998D02*
G01X97221Y21236D01*
G01X92141Y21998D02*
G01X91887Y21998D01*
G01X97221Y21998D02*
G01X97475Y21998D01*
G01X47762Y43728D02*
G01X47762Y38648D01*
G01X47762Y38648D02*
G01X47000Y38648D01*
G01X47000Y38648D02*
G01X46238Y38648D01*
G01X46238Y38648D02*
G01X46238Y43728D01*
G01X46238Y43728D02*
G01X47000Y43728D01*
G01X47000Y43728D02*
G01X47762Y43728D01*
G01X47000Y38648D02*
G01X47000Y38394D01*
G01X47000Y43728D02*
G01X47000Y43982D01*
G01X46238Y27269D02*
G01X46238Y32349D01*
G01X46238Y32349D02*
G01X47000Y32349D01*
G01X47000Y32349D02*
G01X47762Y32349D01*
G01X47762Y32349D02*
G01X47762Y27269D01*
G01X47762Y27269D02*
G01X47000Y27269D01*
G01X47000Y27269D02*
G01X46238Y27269D01*
G01X47000Y32349D02*
G01X47000Y32603D01*
G01X47000Y27269D02*
G01X47000Y27015D01*
G01X44269Y22760D02*
G01X49349Y22760D01*
G01X49349Y22760D02*
G01X49349Y21998D01*
G01X49349Y21998D02*
G01X49349Y21236D01*
G01X49349Y21236D02*
G01X44269Y21236D01*
G01X44269Y21236D02*
G01X44269Y21998D01*
G01X44269Y21998D02*
G01X44269Y22760D01*
G01X49349Y21998D02*
G01X49603Y21998D01*
G01X44269Y21998D02*
G01X44015Y21998D01*
G01X61320Y21236D02*
G01X56240Y21236D01*
G01X56240Y21236D02*
G01X56240Y21998D01*
G01X56240Y21998D02*
G01X56240Y22760D01*
G01X56240Y22760D02*
G01X61320Y22760D01*
G01X61320Y22760D02*
G01X61320Y21998D01*
G01X61320Y21998D02*
G01X61320Y21236D01*
G01X56240Y21998D02*
G01X55986Y21998D01*
G01X61320Y21998D02*
G01X61574Y21998D01*
G01X73286Y21236D02*
G01X68206Y21236D01*
G01X68206Y21236D02*
G01X68206Y21998D01*
G01X68206Y21998D02*
G01X68206Y22760D01*
G01X68206Y22760D02*
G01X73286Y22760D01*
G01X73286Y22760D02*
G01X73286Y21998D01*
G01X73286Y21998D02*
G01X73286Y21236D01*
G01X68206Y21998D02*
G01X67952Y21998D01*
G01X73286Y21998D02*
G01X73540Y21998D01*
G01X85250Y21236D02*
G01X80170Y21236D01*
G01X80170Y21236D02*
G01X80170Y21998D01*
G01X80170Y21998D02*
G01X80170Y22760D01*
G01X80170Y22760D02*
G01X85250Y22760D01*
G01X85250Y22760D02*
G01X85250Y21998D01*
G01X85250Y21998D02*
G01X85250Y21236D01*
G01X80170Y21998D02*
G01X79916Y21998D01*
G01X85250Y21998D02*
G01X85504Y21998D01*
G01X109989Y41018D02*
G01X102491Y41018D01*
G01X109989Y25918D02*
G01X102491Y25918D01*
G01X109989Y41018D02*
G01X109989Y25918D01*
G01X102491Y41018D02*
G01X102491Y25918D01*
G01X78747Y4460D02*
G01X68587Y4460D01*
G01X68587Y9540D01*
G01X78747Y9540D01*
G01X78747Y4460D01*
G01X58414Y4460D02*
G01X48254Y4460D01*
G01X48254Y9540D01*
G01X58414Y9540D01*
G01X58414Y4460D01*
G54D36*
G01X87833Y14119D02*
G01X77594Y14119D01*
G01X77594Y18760D01*
G01X87833Y18760D01*
G01X87833Y14119D01*
G01X77594Y17251D02*
G01X87833Y17251D01*
G01X80863Y18760D02*
G01X80863Y17251D01*
G01X84564Y18760D02*
G01X84564Y17251D01*
G01X51927Y14119D02*
G01X41689Y14119D01*
G01X41689Y18760D01*
G01X51927Y18760D01*
G01X51927Y14119D01*
G01X41689Y17251D02*
G01X51927Y17251D01*
G01X44958Y18760D02*
G01X44958Y17251D01*
G01X48658Y18760D02*
G01X48658Y17251D01*
G01X75867Y14119D02*
G01X65625Y14119D01*
G01X65625Y18760D01*
G01X75867Y18760D01*
G01X75867Y14119D01*
G01X65625Y17251D02*
G01X75867Y17251D01*
G01X68897Y18760D02*
G01X68897Y17251D01*
G01X72598Y18760D02*
G01X72598Y17251D01*
G01X63901Y14119D02*
G01X53660Y14119D01*
G01X53660Y18760D01*
G01X63901Y18760D01*
G01X63901Y14119D01*
G01X53660Y17251D02*
G01X63901Y17251D01*
G01X56931Y18760D02*
G01X56931Y17251D01*
G01X60632Y18760D02*
G01X60632Y17251D01*
G01X39979Y25339D02*
G01X39979Y35580D01*
G01X44620Y35580D01*
G01X44620Y25339D01*
G01X39979Y25339D01*
G01X43108Y35580D02*
G01X43108Y25339D01*
G01X44620Y32308D02*
G01X43108Y32308D01*
G01X44620Y28608D02*
G01X43108Y28608D01*
G01X39979Y36339D02*
G01X39979Y46578D01*
G01X44620Y46578D01*
G01X44620Y36339D01*
G01X39979Y36339D01*
G01X43108Y46578D02*
G01X43108Y36339D01*
G01X44620Y43309D02*
G01X43108Y43309D01*
G01X44620Y39608D02*
G01X43108Y39608D01*
G01X99799Y14119D02*
G01X89560Y14119D01*
G01X89560Y18760D01*
G01X99799Y18760D01*
G01X99799Y14119D01*
G01X89560Y17251D02*
G01X99799Y17251D01*
G01X92829Y18760D02*
G01X92829Y17251D01*
G01X96530Y18760D02*
G01X96530Y17251D01*
G54D10*
G01X88922Y9537D02*
G01X99082Y9537D01*
G01X99082Y4457D01*
G01X88922Y4457D01*
G01X88922Y9537D01*
G01X51460Y42539D02*
G01X59080Y42539D01*
G01X59080Y37459D01*
G01X51460Y37459D01*
G01X51460Y42539D01*
G01X12270Y35110D02*
G01X17350Y35110D01*
G01X17350Y35110D02*
G01X17350Y45270D01*
G01X12270Y35110D02*
G01X12270Y45270D01*
G01X12270Y45270D02*
G01X13540Y45270D01*
G01X16080Y45270D02*
G01X17350Y45270D01*
G01X2730Y37269D02*
G01X2730Y34729D01*
G01X7810Y34729D01*
G01X7810Y37269D01*
G01X2730Y37269D01*
G01X88541Y37546D02*
G01X80921Y37546D01*
G01X80921Y42626D01*
G01X88541Y42626D01*
G01X88541Y37546D01*
G01X31460Y30919D02*
G01X31460Y41079D01*
G01X36540Y41079D01*
G01X36540Y30919D01*
G01X31460Y30919D01*
G01X27922Y9540D02*
G01X38082Y9540D01*
G01X38082Y4460D01*
G01X27922Y4460D01*
G01X27922Y9540D01*
G01X109989Y23020D02*
G01X102491Y23020D01*
G01X109989Y7919D02*
G01X102491Y7919D01*
G01X109989Y23020D02*
G01X109989Y7919D01*
G01X102491Y23020D02*
G01X102491Y7919D01*
G01X92522Y32339D02*
G01X96840Y32339D01*
G01X96840Y38435D02*
G01X92522Y38435D01*
G01X91633Y34396D02*
G01X91633Y36403D01*
G01X97729Y34371D02*
G01X97729Y36403D01*
G01X88082Y54457D02*
G01X77922Y54457D01*
G01X77922Y59537D01*
G01X88082Y59537D01*
G01X88082Y54457D01*
G54D40*
G01X79999Y7738D02*
G01X80185Y7829D01*
G01X80462Y8109D01*
G01X80462Y6168D01*
G01X66091Y7646D02*
G01X66091Y7738D01*
G01X66185Y7923D01*
G01X66276Y8014D01*
G01X66462Y8108D01*
G01X66830Y8108D01*
G01X67016Y8014D01*
G01X67107Y7923D01*
G01X67201Y7738D01*
G01X67201Y7552D01*
G01X67107Y7369D01*
G01X66924Y7092D01*
G01X66000Y6168D01*
G01X67292Y6168D01*
G01X59184Y8108D02*
G01X60200Y8108D01*
G01X59646Y7369D01*
G01X59923Y7369D01*
G01X60108Y7275D01*
G01X60200Y7184D01*
G01X60294Y6907D01*
G01X60294Y6722D01*
G01X60200Y6445D01*
G01X60017Y6259D01*
G01X59737Y6168D01*
G01X59460Y6168D01*
G01X59184Y6259D01*
G01X59092Y6353D01*
G01X59001Y6536D01*
G01X46922Y8108D02*
G01X46000Y6813D01*
G01X47384Y6813D01*
G01X46922Y8108D02*
G01X46922Y6168D01*
G01X34460Y30107D02*
G01X33536Y30107D01*
G01X33444Y29277D01*
G01X33536Y29368D01*
G01X33815Y29460D01*
G01X34092Y29460D01*
G01X34369Y29368D01*
G01X34552Y29183D01*
G01X34646Y28906D01*
G01X34646Y28723D01*
G01X34552Y28444D01*
G01X34369Y28261D01*
G01X34092Y28167D01*
G01X33815Y28167D01*
G01X33536Y28261D01*
G01X33444Y28352D01*
G01X33353Y28538D01*
G01X34507Y43831D02*
G01X34416Y44016D01*
G01X34137Y44107D01*
G01X33954Y44107D01*
G01X33677Y44016D01*
G01X33491Y43739D01*
G01X33400Y43277D01*
G01X33400Y42815D01*
G01X33491Y42444D01*
G01X33677Y42261D01*
G01X33954Y42167D01*
G01X34045Y42167D01*
G01X34322Y42261D01*
G01X34507Y42444D01*
G01X34599Y42723D01*
G01X34599Y42815D01*
G01X34507Y43091D01*
G01X34322Y43277D01*
G01X34045Y43368D01*
G01X33954Y43368D01*
G01X33677Y43277D01*
G01X33491Y43091D01*
G01X33400Y42815D01*
G01X86000Y8107D02*
G01X86000Y6167D01*
G01X86000Y8107D02*
G01X86739Y6167D01*
G01X87476Y8107D02*
G01X86739Y6167D01*
G01X87476Y8107D02*
G01X87476Y6167D01*
G01X30000Y2998D02*
G01X31661Y2998D01*
G01X9294Y62830D02*
G01X9108Y63015D01*
G01X8831Y63107D01*
G01X8460Y63107D01*
G01X8184Y63015D01*
G01X8001Y62830D01*
G01X8001Y62645D01*
G01X8092Y62462D01*
G01X8184Y62368D01*
G01X8369Y62276D01*
G01X8923Y62091D01*
G01X9108Y61999D01*
G01X9200Y61905D01*
G01X9294Y61723D01*
G01X9294Y61446D01*
G01X9108Y61260D01*
G01X8831Y61169D01*
G01X8460Y61169D01*
G01X8184Y61260D01*
G01X8001Y61446D01*
G01X9903Y63107D02*
G01X9903Y61169D01*
G01X9903Y63107D02*
G01X10734Y63107D01*
G01X11011Y63015D01*
G01X11102Y62921D01*
G01X11196Y62739D01*
G01X11196Y62462D01*
G01X11102Y62276D01*
G01X11011Y62185D01*
G01X10734Y62091D01*
G01X9903Y62091D01*
G01X11806Y63107D02*
G01X11806Y61169D01*
G01X11806Y63107D02*
G01X12636Y63107D01*
G01X12913Y63015D01*
G01X13005Y62921D01*
G01X13099Y62739D01*
G01X13099Y62553D01*
G01X13005Y62368D01*
G01X12913Y62276D01*
G01X12636Y62185D01*
G01X11806Y62185D01*
G01X12451Y62185D02*
G01X13099Y61169D01*
G01X13708Y63107D02*
G01X13708Y61169D01*
G01X14318Y63107D02*
G01X14318Y61169D01*
G01X14318Y63107D02*
G01X15611Y61169D01*
G01X15611Y63107D02*
G01X15611Y61169D01*
G01X16220Y63107D02*
G01X16220Y61169D01*
G01X17513Y63107D02*
G01X16220Y61814D01*
G01X16682Y62276D02*
G01X17513Y61169D01*
G01X18123Y63107D02*
G01X18123Y61169D01*
G01X18123Y61169D02*
G01X19230Y61169D01*
G01X19840Y63107D02*
G01X19840Y61169D01*
G01X19840Y63107D02*
G01X21041Y63107D01*
G01X19840Y62185D02*
G01X20579Y62185D01*
G01X19840Y61169D02*
G01X21041Y61169D01*
G01X21651Y63107D02*
G01X21651Y61169D01*
G01X21651Y63107D02*
G01X22481Y63107D01*
G01X22758Y63015D01*
G01X22852Y62921D01*
G01X22944Y62739D01*
G01X22944Y62553D01*
G01X22852Y62368D01*
G01X22758Y62276D01*
G01X22481Y62185D01*
G01X21651Y62185D01*
G01X22298Y62185D02*
G01X22944Y61169D01*
G01X24976Y63107D02*
G01X25715Y61169D01*
G01X26454Y63107D02*
G01X25715Y61169D01*
G01X27063Y62739D02*
G01X27249Y62830D01*
G01X27526Y63107D01*
G01X27526Y61169D01*
G01X28227Y61629D02*
G01X28135Y61537D01*
G01X28227Y61446D01*
G01X28318Y61537D01*
G01X28227Y61629D01*
G01X29484Y63107D02*
G01X29207Y63015D01*
G01X29022Y62739D01*
G01X28928Y62276D01*
G01X28928Y61999D01*
G01X29022Y61537D01*
G01X29207Y61260D01*
G01X29484Y61169D01*
G01X29667Y61169D01*
G01X29944Y61260D01*
G01X30129Y61537D01*
G01X30223Y61999D01*
G01X30223Y62276D01*
G01X30129Y62739D01*
G01X29944Y63015D01*
G01X29667Y63107D01*
G01X29484Y63107D01*
G54D41*
G01X111455Y7999D02*
G01X111386Y8134D01*
G01X111181Y8340D01*
G01X112613Y8340D01*
G01X111521Y8858D02*
G01X111455Y8858D01*
G01X111318Y8927D01*
G01X111249Y8995D01*
G01X111181Y9130D01*
G01X111181Y9404D01*
G01X111249Y9539D01*
G01X111318Y9607D01*
G01X111455Y9676D01*
G01X111590Y9676D01*
G01X111727Y9607D01*
G01X111930Y9473D01*
G01X112613Y8789D01*
G01X112613Y9744D01*
G01X111181Y10194D02*
G01X112613Y10740D01*
G01X111181Y11286D02*
G01X112613Y10740D01*
G01X111262Y14395D02*
G01X111262Y13715D01*
G01X111874Y13646D01*
G01X111805Y13715D01*
G01X111739Y13918D01*
G01X111739Y14124D01*
G01X111805Y14327D01*
G01X111942Y14464D01*
G01X112148Y14533D01*
G01X112283Y14533D01*
G01X112488Y14464D01*
G01X112626Y14327D01*
G01X112692Y14124D01*
G01X112692Y13918D01*
G01X112626Y13715D01*
G01X112557Y13646D01*
G01X112420Y13578D01*
G01X111262Y14982D02*
G01X112692Y15528D01*
G01X111262Y16074D02*
G01X112692Y15528D01*
G01X111523Y19021D02*
G01X111386Y18955D01*
G01X111248Y18817D01*
G01X111180Y18680D01*
G01X111180Y18408D01*
G01X111248Y18271D01*
G01X111386Y18134D01*
G01X111523Y18068D01*
G01X111726Y17999D01*
G01X112066Y17999D01*
G01X112272Y18068D01*
G01X112409Y18134D01*
G01X112544Y18271D01*
G01X112612Y18408D01*
G01X112612Y18680D01*
G01X112544Y18817D01*
G01X112409Y18955D01*
G01X112272Y19021D01*
G01X112066Y19021D01*
G01X112066Y18680D02*
G01X112066Y19021D01*
G01X111180Y19473D02*
G01X112612Y19473D01*
G01X111180Y19473D02*
G01X112612Y20425D01*
G01X111180Y20425D02*
G01X112612Y20425D01*
G01X111180Y20877D02*
G01X112612Y20877D01*
G01X111180Y20877D02*
G01X111180Y21352D01*
G01X111248Y21558D01*
G01X111386Y21695D01*
G01X111523Y21764D01*
G01X111726Y21830D01*
G01X112066Y21830D01*
G01X112272Y21764D01*
G01X112409Y21695D01*
G01X112544Y21558D01*
G01X112612Y21352D01*
G01X112612Y20877D01*
G01X111523Y27021D02*
G01X111386Y26954D01*
G01X111248Y26817D01*
G01X111180Y26680D01*
G01X111180Y26408D01*
G01X111248Y26271D01*
G01X111386Y26134D01*
G01X111523Y26068D01*
G01X111726Y25999D01*
G01X112066Y25999D01*
G01X112272Y26068D01*
G01X112409Y26134D01*
G01X112544Y26271D01*
G01X112612Y26408D01*
G01X112612Y26680D01*
G01X112544Y26817D01*
G01X112409Y26954D01*
G01X112272Y27021D01*
G01X112066Y27021D01*
G01X112066Y26680D02*
G01X112066Y27021D01*
G01X111180Y27473D02*
G01X112612Y27473D01*
G01X111180Y27473D02*
G01X112612Y28425D01*
G01X111180Y28425D02*
G01X112612Y28425D01*
G01X111180Y28877D02*
G01X112612Y28877D01*
G01X111180Y28877D02*
G01X111180Y29352D01*
G01X111248Y29558D01*
G01X111386Y29695D01*
G01X111523Y29764D01*
G01X111726Y29830D01*
G01X112066Y29830D01*
G01X112272Y29764D01*
G01X112409Y29695D01*
G01X112544Y29558D01*
G01X112612Y29352D01*
G01X112612Y28877D01*
G01X47021Y52475D02*
G01X46955Y52613D01*
G01X46818Y52750D01*
G01X46681Y52818D01*
G01X46409Y52818D01*
G01X46272Y52750D01*
G01X46135Y52613D01*
G01X46068Y52475D01*
G01X46000Y52272D01*
G01X46000Y51932D01*
G01X46068Y51726D01*
G01X46135Y51589D01*
G01X46272Y51454D01*
G01X46409Y51386D01*
G01X46681Y51386D01*
G01X46818Y51454D01*
G01X46955Y51589D01*
G01X47021Y51726D01*
G01X47021Y51932D01*
G01X46681Y51932D02*
G01X47021Y51932D01*
G01X47473Y52818D02*
G01X47473Y51386D01*
G01X47473Y52818D02*
G01X48426Y51386D01*
G01X48426Y52818D02*
G01X48426Y51386D01*
G01X48878Y52818D02*
G01X48878Y51386D01*
G01X48878Y52818D02*
G01X49353Y52818D01*
G01X49558Y52750D01*
G01X49696Y52613D01*
G01X49764Y52475D01*
G01X49830Y52272D01*
G01X49830Y51932D01*
G01X49764Y51726D01*
G01X49696Y51589D01*
G01X49558Y51454D01*
G01X49353Y51386D01*
G01X48878Y51386D01*
G01X85021Y52475D02*
G01X84955Y52613D01*
G01X84818Y52750D01*
G01X84681Y52818D01*
G01X84409Y52818D01*
G01X84272Y52750D01*
G01X84134Y52613D01*
G01X84068Y52475D01*
G01X84000Y52272D01*
G01X84000Y51932D01*
G01X84068Y51726D01*
G01X84134Y51589D01*
G01X84272Y51454D01*
G01X84409Y51386D01*
G01X84681Y51386D01*
G01X84818Y51454D01*
G01X84955Y51589D01*
G01X85021Y51726D01*
G01X85021Y51932D01*
G01X84681Y51932D02*
G01X85021Y51932D01*
G01X85473Y52818D02*
G01X85473Y51386D01*
G01X85473Y52818D02*
G01X86426Y51386D01*
G01X86426Y52818D02*
G01X86426Y51386D01*
G01X86878Y52818D02*
G01X86878Y51386D01*
G01X86878Y52818D02*
G01X87353Y52818D01*
G01X87558Y52750D01*
G01X87696Y52613D01*
G01X87764Y52475D01*
G01X87830Y52272D01*
G01X87830Y51932D01*
G01X87764Y51726D01*
G01X87696Y51589D01*
G01X87558Y51454D01*
G01X87353Y51386D01*
G01X86878Y51386D01*
G01X80818Y52819D02*
G01X80135Y52819D01*
G01X80069Y52204D01*
G01X80135Y52272D01*
G01X80340Y52341D01*
G01X80544Y52341D01*
G01X80749Y52272D01*
G01X80887Y52135D01*
G01X80955Y51932D01*
G01X80955Y51795D01*
G01X80887Y51589D01*
G01X80749Y51455D01*
G01X80544Y51386D01*
G01X80340Y51386D01*
G01X80135Y51455D01*
G01X80069Y51523D01*
G01X80000Y51658D01*
G01X81405Y52819D02*
G01X81948Y51386D01*
G01X82494Y52819D02*
G01X81948Y51386D01*
G01X102999Y51817D02*
G01X103545Y50387D01*
G01X104091Y51817D02*
G01X103545Y50387D01*
G01X104950Y51817D02*
G01X104812Y51749D01*
G01X104678Y51614D01*
G01X104609Y51477D01*
G01X104541Y51274D01*
G01X104541Y50931D01*
G01X104609Y50728D01*
G01X104678Y50590D01*
G01X104812Y50453D01*
G01X104950Y50387D01*
G01X105221Y50387D01*
G01X105358Y50453D01*
G01X105496Y50590D01*
G01X105564Y50728D01*
G01X105630Y50931D01*
G01X105630Y51274D01*
G01X105564Y51477D01*
G01X105496Y51614D01*
G01X105358Y51749D01*
G01X105221Y51817D01*
G01X104950Y51817D01*
G01X106082Y51817D02*
G01X106082Y50796D01*
G01X106148Y50590D01*
G01X106286Y50453D01*
G01X106491Y50387D01*
G01X106626Y50387D01*
G01X106832Y50453D01*
G01X106966Y50590D01*
G01X107035Y50796D01*
G01X107035Y51817D01*
G01X107962Y51817D02*
G01X107962Y50387D01*
G01X107484Y51817D02*
G01X108439Y51817D01*
G01X99021Y51475D02*
G01X98955Y51613D01*
G01X98818Y51750D01*
G01X98681Y51818D01*
G01X98409Y51818D01*
G01X98272Y51750D01*
G01X98134Y51613D01*
G01X98068Y51475D01*
G01X98000Y51272D01*
G01X98000Y50932D01*
G01X98068Y50726D01*
G01X98134Y50589D01*
G01X98272Y50454D01*
G01X98409Y50386D01*
G01X98681Y50386D01*
G01X98818Y50454D01*
G01X98955Y50589D01*
G01X99021Y50726D01*
G01X99021Y50932D01*
G01X98681Y50932D02*
G01X99021Y50932D01*
G01X99473Y51818D02*
G01X99473Y50386D01*
G01X99473Y51818D02*
G01X100426Y50386D01*
G01X100426Y51818D02*
G01X100426Y50386D01*
G01X100878Y51818D02*
G01X100878Y50386D01*
G01X100878Y51818D02*
G01X101353Y51818D01*
G01X101558Y51750D01*
G01X101696Y51613D01*
G01X101764Y51475D01*
G01X101830Y51272D01*
G01X101830Y50932D01*
G01X101764Y50726D01*
G01X101696Y50589D01*
G01X101558Y50454D01*
G01X101353Y50386D01*
G01X100878Y50386D01*
G01X111182Y32816D02*
G01X111182Y32136D01*
G01X111794Y32067D01*
G01X111725Y32136D01*
G01X111659Y32339D01*
G01X111659Y32545D01*
G01X111725Y32748D01*
G01X111863Y32885D01*
G01X112068Y32953D01*
G01X112203Y32953D01*
G01X112409Y32885D01*
G01X112546Y32748D01*
G01X112612Y32545D01*
G01X112612Y32339D01*
G01X112546Y32136D01*
G01X112477Y32067D01*
G01X112340Y31998D01*
G01X111182Y33403D02*
G01X112612Y33949D01*
G01X111182Y34495D02*
G01X112612Y33949D01*
G01X111385Y36954D02*
G01X111250Y36817D01*
G01X111181Y36612D01*
G01X111181Y36340D01*
G01X111250Y36134D01*
G01X111385Y35999D01*
G01X111522Y35999D01*
G01X111659Y36068D01*
G01X111727Y36134D01*
G01X111794Y36271D01*
G01X111931Y36680D01*
G01X111999Y36817D01*
G01X112068Y36886D01*
G01X112205Y36954D01*
G01X112408Y36954D01*
G01X112545Y36817D01*
G01X112614Y36612D01*
G01X112614Y36340D01*
G01X112545Y36134D01*
G01X112408Y35999D01*
G01X111181Y37404D02*
G01X112614Y37404D01*
G01X111181Y37404D02*
G01X111181Y38291D01*
G01X111862Y37404D02*
G01X111862Y37950D01*
G01X112614Y37404D02*
G01X112614Y38291D01*
G01X111181Y38740D02*
G01X112614Y38740D01*
G01X111181Y38740D02*
G01X112614Y39695D01*
G01X111181Y39695D02*
G01X112614Y39695D01*
G01X111385Y41100D02*
G01X111250Y40963D01*
G01X111181Y40757D01*
G01X111181Y40485D01*
G01X111250Y40282D01*
G01X111385Y40145D01*
G01X111522Y40145D01*
G01X111659Y40213D01*
G01X111727Y40282D01*
G01X111794Y40416D01*
G01X111931Y40825D01*
G01X111999Y40963D01*
G01X112068Y41031D01*
G01X112205Y41100D01*
G01X112408Y41100D01*
G01X112545Y40963D01*
G01X112614Y40757D01*
G01X112614Y40485D01*
G01X112545Y40282D01*
G01X112408Y40145D01*
G01X91955Y51616D02*
G01X91818Y51750D01*
G01X91612Y51819D01*
G01X91340Y51819D01*
G01X91134Y51750D01*
G01X91000Y51616D01*
G01X91000Y51478D01*
G01X91068Y51341D01*
G01X91134Y51273D01*
G01X91272Y51207D01*
G01X91681Y51069D01*
G01X91818Y51001D01*
G01X91886Y50932D01*
G01X91955Y50795D01*
G01X91955Y50592D01*
G01X91818Y50455D01*
G01X91612Y50386D01*
G01X91340Y50386D01*
G01X91134Y50455D01*
G01X91000Y50592D01*
G01X92404Y51819D02*
G01X92404Y50386D01*
G01X92404Y51819D02*
G01X93291Y51819D01*
G01X92404Y51138D02*
G01X92951Y51138D01*
G01X92404Y50386D02*
G01X93291Y50386D01*
G01X93740Y51819D02*
G01X93740Y50386D01*
G01X93740Y51819D02*
G01X94696Y50386D01*
G01X94696Y51819D02*
G01X94696Y50386D01*
G01X96100Y51616D02*
G01X95963Y51750D01*
G01X95757Y51819D01*
G01X95485Y51819D01*
G01X95282Y51750D01*
G01X95145Y51616D01*
G01X95145Y51478D01*
G01X95214Y51341D01*
G01X95282Y51273D01*
G01X95417Y51207D01*
G01X95826Y51069D01*
G01X95963Y51001D01*
G01X96032Y50932D01*
G01X96100Y50795D01*
G01X96100Y50592D01*
G01X95963Y50455D01*
G01X95757Y50386D01*
G01X95485Y50386D01*
G01X95282Y50455D01*
G01X95145Y50592D01*
G01X41818Y52819D02*
G01X41135Y52819D01*
G01X41069Y52204D01*
G01X41135Y52272D01*
G01X41341Y52341D01*
G01X41544Y52341D01*
G01X41749Y52272D01*
G01X41887Y52135D01*
G01X41955Y51932D01*
G01X41955Y51795D01*
G01X41887Y51589D01*
G01X41749Y51455D01*
G01X41544Y51386D01*
G01X41341Y51386D01*
G01X41135Y51455D01*
G01X41069Y51523D01*
G01X41000Y51658D01*
G01X42405Y52819D02*
G01X42948Y51386D01*
G01X43494Y52819D02*
G01X42948Y51386D01*
G01X99998Y7818D02*
G01X100544Y6385D01*
G01X101090Y7818D02*
G01X100544Y6385D01*
G01X101949Y7818D02*
G01X101812Y7749D01*
G01X101677Y7612D01*
G01X101609Y7477D01*
G01X101540Y7272D01*
G01X101540Y6931D01*
G01X101609Y6725D01*
G01X101677Y6591D01*
G01X101812Y6454D01*
G01X101949Y6385D01*
G01X102221Y6385D01*
G01X102358Y6454D01*
G01X102495Y6591D01*
G01X102564Y6725D01*
G01X102632Y6931D01*
G01X102632Y7272D01*
G01X102564Y7477D01*
G01X102495Y7612D01*
G01X102358Y7749D01*
G01X102221Y7818D01*
G01X101949Y7818D01*
G01X103082Y7818D02*
G01X103082Y6794D01*
G01X103150Y6591D01*
G01X103285Y6454D01*
G01X103491Y6385D01*
G01X103625Y6385D01*
G01X103831Y6454D01*
G01X103968Y6591D01*
G01X104037Y6794D01*
G01X104037Y7818D01*
G01X104964Y7818D02*
G01X104964Y6385D01*
G01X104486Y7818D02*
G01X105439Y7818D01*
G54D40*
G01X35472Y3710D02*
G01X35472Y2047D01*
G01X34642Y2877D02*
G01X36303Y2877D01*
G01X84999Y42546D02*
G01X84999Y41590D01*
G01X84999Y42546D02*
G01X85408Y42546D01*
G01X85545Y42500D01*
G01X85591Y42454D01*
G01X85636Y42363D01*
G01X85636Y42271D01*
G01X85591Y42180D01*
G01X85545Y42134D01*
G01X85408Y42091D01*
G01X84999Y42091D01*
G01X85316Y42091D02*
G01X85636Y41590D01*
G01X85936Y42546D02*
G01X86571Y41590D01*
G01X86571Y42546D02*
G01X85936Y41590D01*
G01X86871Y42546D02*
G01X86871Y41590D01*
G01X86871Y42546D02*
G01X87191Y42546D01*
G01X87325Y42500D01*
G01X87417Y42408D01*
G01X87463Y42317D01*
G01X87508Y42180D01*
G01X87508Y41954D01*
G01X87463Y41817D01*
G01X87417Y41725D01*
G01X87325Y41636D01*
G01X87191Y41590D01*
G01X86871Y41590D01*
G01X82317Y42546D02*
G01X82317Y41590D01*
G01X82000Y42546D02*
G01X82635Y42546D01*
G01X82935Y42546D02*
G01X83572Y41590D01*
G01X83572Y42546D02*
G01X82935Y41590D01*
G01X83872Y42546D02*
G01X83872Y41590D01*
G01X83872Y42546D02*
G01X84189Y42546D01*
G01X84326Y42500D01*
G01X84418Y42408D01*
G01X84464Y42317D01*
G01X84509Y42180D01*
G01X84509Y41954D01*
G01X84464Y41817D01*
G01X84418Y41725D01*
G01X84326Y41636D01*
G01X84189Y41590D01*
G01X83872Y41590D01*
G01X57000Y42546D02*
G01X57000Y41590D01*
G54D41*
G01X59999Y3818D02*
G01X60545Y2385D01*
G01X61091Y3818D02*
G01X60545Y2385D01*
G01X62087Y3818D02*
G01X61541Y2385D01*
G01X62087Y3818D02*
G01X62630Y2385D01*
G01X61744Y2863D02*
G01X62427Y2863D01*
G01X63082Y3818D02*
G01X63082Y2385D01*
G01X63082Y2385D02*
G01X63900Y2385D01*
G01X64350Y3818D02*
G01X64896Y2385D01*
G01X65440Y3818D02*
G01X64896Y2385D01*
G01X65889Y3818D02*
G01X65889Y2385D01*
G01X65889Y3818D02*
G01X66776Y3818D01*
G01X65889Y3134D02*
G01X66435Y3134D01*
G01X65889Y2385D02*
G01X66776Y2385D01*
G01X68180Y3612D02*
G01X68046Y3749D01*
G01X67840Y3818D01*
G01X67568Y3818D01*
G01X67362Y3749D01*
G01X67228Y3612D01*
G01X67228Y3477D01*
G01X67294Y3340D01*
G01X67362Y3272D01*
G01X67499Y3203D01*
G01X67908Y3068D01*
G01X68046Y3000D01*
G01X68114Y2931D01*
G01X68180Y2794D01*
G01X68180Y2591D01*
G01X68046Y2454D01*
G01X67840Y2385D01*
G01X67568Y2385D01*
G01X67362Y2454D01*
G01X67228Y2591D01*
G01X54954Y52706D02*
G01X54817Y52841D01*
G01X54614Y52909D01*
G01X54340Y52909D01*
G01X54137Y52841D01*
G01X53999Y52706D01*
G01X53999Y52569D01*
G01X54068Y52432D01*
G01X54137Y52363D01*
G01X54271Y52297D01*
G01X54683Y52160D01*
G01X54817Y52091D01*
G01X54886Y52023D01*
G01X54954Y51888D01*
G01X54954Y51683D01*
G01X54817Y51545D01*
G01X54614Y51479D01*
G01X54340Y51479D01*
G01X54137Y51545D01*
G01X53999Y51683D01*
G01X55404Y52909D02*
G01X55404Y51479D01*
G01X55404Y52909D02*
G01X55882Y52909D01*
G01X56087Y52841D01*
G01X56222Y52706D01*
G01X56290Y52569D01*
G01X56359Y52363D01*
G01X56359Y52023D01*
G01X56290Y51820D01*
G01X56222Y51683D01*
G01X56087Y51545D01*
G01X55882Y51479D01*
G01X55404Y51479D01*
G01X57355Y52909D02*
G01X56809Y51479D01*
G01X57355Y52909D02*
G01X57901Y51479D01*
G01X57014Y51954D02*
G01X57695Y51954D01*
G01X60952Y52704D02*
G01X60818Y52841D01*
G01X60612Y52909D01*
G01X60340Y52909D01*
G01X60134Y52841D01*
G01X60000Y52704D01*
G01X60000Y52567D01*
G01X60066Y52432D01*
G01X60134Y52363D01*
G01X60272Y52295D01*
G01X60680Y52158D01*
G01X60818Y52089D01*
G01X60884Y52023D01*
G01X60952Y51886D01*
G01X60952Y51680D01*
G01X60818Y51545D01*
G01X60612Y51477D01*
G01X60340Y51477D01*
G01X60134Y51545D01*
G01X60000Y51680D01*
G01X62425Y52567D02*
G01X62357Y52704D01*
G01X62222Y52841D01*
G01X62085Y52909D01*
G01X61813Y52909D01*
G01X61676Y52841D01*
G01X61539Y52704D01*
G01X61470Y52567D01*
G01X61402Y52363D01*
G01X61402Y52023D01*
G01X61470Y51817D01*
G01X61539Y51680D01*
G01X61676Y51545D01*
G01X61813Y51477D01*
G01X62085Y51477D01*
G01X62222Y51545D01*
G01X62357Y51680D01*
G01X62425Y51817D01*
G01X62875Y52909D02*
G01X62875Y51477D01*
G01X62875Y51477D02*
G01X63693Y51477D01*
G01X66954Y52614D02*
G01X66817Y52749D01*
G01X66614Y52817D01*
G01X66340Y52817D01*
G01X66136Y52749D01*
G01X65999Y52614D01*
G01X65999Y52477D01*
G01X66068Y52340D01*
G01X66136Y52271D01*
G01X66271Y52205D01*
G01X66683Y52068D01*
G01X66817Y51999D01*
G01X66886Y51931D01*
G01X66954Y51796D01*
G01X66954Y51590D01*
G01X66817Y51453D01*
G01X66614Y51387D01*
G01X66340Y51387D01*
G01X66136Y51453D01*
G01X65999Y51590D01*
G01X67404Y52817D02*
G01X67404Y51387D01*
G01X67404Y52817D02*
G01X67881Y52817D01*
G01X68087Y52749D01*
G01X68222Y52614D01*
G01X68290Y52477D01*
G01X68359Y52271D01*
G01X68359Y51931D01*
G01X68290Y51727D01*
G01X68222Y51590D01*
G01X68087Y51453D01*
G01X67881Y51387D01*
G01X67404Y51387D01*
G01X69355Y52817D02*
G01X68809Y51387D01*
G01X69355Y52817D02*
G01X69901Y51387D01*
G01X69014Y51862D02*
G01X69695Y51862D01*
G01X72952Y52613D02*
G01X72818Y52750D01*
G01X72612Y52819D01*
G01X72340Y52819D01*
G01X72135Y52750D01*
G01X72000Y52613D01*
G01X72000Y52476D01*
G01X72066Y52341D01*
G01X72135Y52272D01*
G01X72272Y52204D01*
G01X72681Y52067D01*
G01X72818Y51998D01*
G01X72884Y51932D01*
G01X72952Y51795D01*
G01X72952Y51589D01*
G01X72818Y51455D01*
G01X72612Y51386D01*
G01X72340Y51386D01*
G01X72135Y51455D01*
G01X72000Y51589D01*
G01X74426Y52476D02*
G01X74357Y52613D01*
G01X74222Y52750D01*
G01X74085Y52819D01*
G01X73813Y52819D01*
G01X73676Y52750D01*
G01X73539Y52613D01*
G01X73471Y52476D01*
G01X73402Y52272D01*
G01X73402Y51932D01*
G01X73471Y51726D01*
G01X73539Y51589D01*
G01X73676Y51455D01*
G01X73813Y51386D01*
G01X74085Y51386D01*
G01X74222Y51455D01*
G01X74357Y51589D01*
G01X74426Y51726D01*
G01X74875Y52819D02*
G01X74875Y51386D01*
G01X74875Y51386D02*
G01X75693Y51386D01*
G54D10*
G01X-2999Y62999D02*
G01X-2999Y42813D01*
G01X-2999Y23185D02*
G01X-2999Y2999D01*
G01X-3761Y61729D02*
G01X-2999Y62999D01*
G01X-2237Y61729D01*
G01X-3761Y4269D02*
G01X-2999Y2999D01*
G01X-2237Y4269D01*
G01X-4038Y25080D02*
G01X-4269Y24963D01*
G01X-4386Y24618D01*
G01X-4386Y24386D01*
G01X-4269Y24038D01*
G01X-3923Y23810D01*
G01X-3347Y23693D01*
G01X-2768Y23693D01*
G01X-2308Y23810D01*
G01X-2077Y24038D01*
G01X-1960Y24386D01*
G01X-1960Y24501D01*
G01X-2077Y24849D01*
G01X-2308Y25080D01*
G01X-2653Y25194D01*
G01X-2768Y25194D01*
G01X-3116Y25080D01*
G01X-3347Y24849D01*
G01X-3461Y24501D01*
G01X-3461Y24386D01*
G01X-3347Y24038D01*
G01X-3116Y23810D01*
G01X-2768Y23693D01*
G01X-4386Y26650D02*
G01X-4269Y26302D01*
G01X-3923Y26070D01*
G01X-3347Y25956D01*
G01X-2999Y25956D01*
G01X-2422Y26070D01*
G01X-2077Y26302D01*
G01X-1960Y26650D01*
G01X-1960Y26881D01*
G01X-2077Y27226D01*
G01X-2422Y27457D01*
G01X-2999Y27572D01*
G01X-3347Y27572D01*
G01X-3923Y27457D01*
G01X-4269Y27226D01*
G01X-4386Y26881D01*
G01X-4386Y26650D01*
G01X-2537Y28450D02*
G01X-2422Y28334D01*
G01X-2308Y28450D01*
G01X-2422Y28565D01*
G01X-2537Y28450D01*
G01X-4386Y30020D02*
G01X-4269Y29675D01*
G01X-3923Y29444D01*
G01X-3347Y29327D01*
G01X-2999Y29327D01*
G01X-2422Y29444D01*
G01X-2077Y29675D01*
G01X-1960Y30020D01*
G01X-1960Y30251D01*
G01X-2077Y30597D01*
G01X-2422Y30828D01*
G01X-2999Y30945D01*
G01X-3347Y30945D01*
G01X-3923Y30828D01*
G01X-4269Y30597D01*
G01X-4386Y30251D01*
G01X-4386Y30020D01*
G01X-4386Y32398D02*
G01X-4269Y32052D01*
G01X-3923Y31821D01*
G01X-3347Y31707D01*
G01X-2999Y31707D01*
G01X-2422Y31821D01*
G01X-2077Y32052D01*
G01X-1960Y32398D01*
G01X-1960Y32629D01*
G01X-2077Y32977D01*
G01X-2422Y33208D01*
G01X-2999Y33322D01*
G01X-3347Y33322D01*
G01X-3923Y33208D01*
G01X-4269Y32977D01*
G01X-4386Y32629D01*
G01X-4386Y32398D01*
G01X-4386Y34778D02*
G01X-4269Y34430D01*
G01X-3923Y34198D01*
G01X-3347Y34084D01*
G01X-2999Y34084D01*
G01X-2422Y34198D01*
G01X-2077Y34430D01*
G01X-1960Y34778D01*
G01X-1960Y35009D01*
G01X-2077Y35354D01*
G01X-2422Y35585D01*
G01X-2999Y35700D01*
G01X-3347Y35700D01*
G01X-3923Y35585D01*
G01X-4269Y35354D01*
G01X-4386Y35009D01*
G01X-4386Y34778D01*
G01X-3578Y36462D02*
G01X-1960Y36462D01*
G01X-3116Y36462D02*
G01X-3461Y36810D01*
G01X-3578Y37041D01*
G01X-3578Y37386D01*
G01X-3461Y37617D01*
G01X-3116Y37732D01*
G01X-1960Y37732D01*
G01X-3116Y37732D02*
G01X-3461Y38080D01*
G01X-3578Y38311D01*
G01X-3578Y38656D01*
G01X-3461Y38887D01*
G01X-3116Y39002D01*
G01X-1960Y39002D01*
G01X-3578Y39764D02*
G01X-1960Y39764D01*
G01X-3116Y39764D02*
G01X-3461Y40112D01*
G01X-3578Y40343D01*
G01X-3578Y40688D01*
G01X-3461Y40919D01*
G01X-3116Y41034D01*
G01X-1960Y41034D01*
G01X-3116Y41034D02*
G01X-3461Y41382D01*
G01X-3578Y41613D01*
G01X-3578Y41958D01*
G01X-3461Y42189D01*
G01X-3116Y42304D01*
G01X-1960Y42304D01*
G01X2999Y67999D02*
G01X46458Y67999D01*
G01X67540Y67999D02*
G01X110999Y67999D01*
G01X4269Y67237D02*
G01X2999Y67999D01*
G01X4269Y68761D01*
G01X109729Y67237D02*
G01X110999Y67999D01*
G01X109729Y68761D01*
G01X46967Y68924D02*
G01X47198Y69038D01*
G01X47543Y69383D01*
G01X47543Y66960D01*
G01X48999Y69383D02*
G01X48653Y69269D01*
G01X48422Y68924D01*
G01X48305Y68345D01*
G01X48305Y67999D01*
G01X48422Y67423D01*
G01X48653Y67075D01*
G01X48999Y66960D01*
G01X49230Y66960D01*
G01X49575Y67075D01*
G01X49806Y67423D01*
G01X49923Y67999D01*
G01X49923Y68345D01*
G01X49806Y68924D01*
G01X49575Y69269D01*
G01X49230Y69383D01*
G01X48999Y69383D01*
G01X51262Y69383D02*
G01X50914Y69269D01*
G01X50800Y69038D01*
G01X50800Y68807D01*
G01X50914Y68576D01*
G01X51145Y68461D01*
G01X51607Y68345D01*
G01X51955Y68230D01*
G01X52184Y67999D01*
G01X52301Y67768D01*
G01X52301Y67423D01*
G01X52184Y67191D01*
G01X52070Y67075D01*
G01X51724Y66960D01*
G01X51262Y66960D01*
G01X50914Y67075D01*
G01X50800Y67191D01*
G01X50685Y67423D01*
G01X50685Y67768D01*
G01X50800Y67999D01*
G01X51031Y68230D01*
G01X51376Y68345D01*
G01X51838Y68461D01*
G01X52070Y68576D01*
G01X52184Y68807D01*
G01X52184Y69038D01*
G01X52070Y69269D01*
G01X51724Y69383D01*
G01X51262Y69383D01*
G01X53177Y67537D02*
G01X53063Y67423D01*
G01X53177Y67306D01*
G01X53294Y67423D01*
G01X53177Y67537D01*
G01X54749Y69383D02*
G01X54401Y69269D01*
G01X54170Y68924D01*
G01X54056Y68345D01*
G01X54056Y67999D01*
G01X54170Y67423D01*
G01X54401Y67075D01*
G01X54749Y66960D01*
G01X54978Y66960D01*
G01X55326Y67075D01*
G01X55557Y67423D01*
G01X55671Y67999D01*
G01X55671Y68345D01*
G01X55557Y68924D01*
G01X55326Y69269D01*
G01X54978Y69383D01*
G01X54749Y69383D01*
G01X57127Y69383D02*
G01X56781Y69269D01*
G01X56550Y68924D01*
G01X56433Y68345D01*
G01X56433Y67999D01*
G01X56550Y67423D01*
G01X56781Y67075D01*
G01X57127Y66960D01*
G01X57358Y66960D01*
G01X57703Y67075D01*
G01X57934Y67423D01*
G01X58051Y67999D01*
G01X58051Y68345D01*
G01X57934Y68924D01*
G01X57703Y69269D01*
G01X57358Y69383D01*
G01X57127Y69383D01*
G01X59504Y69383D02*
G01X59159Y69269D01*
G01X58928Y68924D01*
G01X58813Y68345D01*
G01X58813Y67999D01*
G01X58928Y67423D01*
G01X59159Y67075D01*
G01X59504Y66960D01*
G01X59735Y66960D01*
G01X60083Y67075D01*
G01X60312Y67423D01*
G01X60429Y67999D01*
G01X60429Y68345D01*
G01X60312Y68924D01*
G01X60083Y69269D01*
G01X59735Y69383D01*
G01X59504Y69383D01*
G01X61191Y68576D02*
G01X61191Y66960D01*
G01X61191Y68113D02*
G01X61536Y68461D01*
G01X61767Y68576D01*
G01X62115Y68576D01*
G01X62344Y68461D01*
G01X62461Y68113D01*
G01X62461Y66960D01*
G01X62461Y68113D02*
G01X62806Y68461D01*
G01X63037Y68576D01*
G01X63385Y68576D01*
G01X63614Y68461D01*
G01X63731Y68113D01*
G01X63731Y66960D01*
G01X64493Y68576D02*
G01X64493Y66960D01*
G01X64493Y68113D02*
G01X64838Y68461D01*
G01X65069Y68576D01*
G01X65417Y68576D01*
G01X65646Y68461D01*
G01X65763Y68113D01*
G01X65763Y66960D01*
G01X65763Y68113D02*
G01X66108Y68461D01*
G01X66339Y68576D01*
G01X66687Y68576D01*
G01X66916Y68461D01*
G01X67033Y68113D01*
G01X67033Y66960D01*
G54D39*
G01X63868Y32421D02*
G01X63451Y31332D01*
G01X63868Y32421D02*
G01X64282Y31332D01*
G01X63606Y31695D02*
G01X64127Y31695D01*
G01X64988Y32421D02*
G01X64988Y31332D01*
G01X64625Y32421D02*
G01X65354Y32421D01*
G01X65697Y32421D02*
G01X65697Y31332D01*
G01X65697Y32421D02*
G01X66111Y31332D01*
G01X66527Y32421D02*
G01X66111Y31332D01*
G01X66527Y32421D02*
G01X66527Y31332D01*
G01X66870Y32421D02*
G01X66870Y31332D01*
G01X66870Y32421D02*
G01X67546Y32421D01*
G01X66870Y31903D02*
G01X67287Y31903D01*
G01X66870Y31332D02*
G01X67546Y31332D01*
G01X68668Y32162D02*
G01X68615Y32266D01*
G01X68511Y32371D01*
G01X68407Y32421D01*
G01X68201Y32421D01*
G01X68097Y32371D01*
G01X67993Y32266D01*
G01X67939Y32162D01*
G01X67889Y32007D01*
G01X67889Y31748D01*
G01X67939Y31591D01*
G01X67993Y31487D01*
G01X68097Y31382D01*
G01X68201Y31332D01*
G01X68407Y31332D01*
G01X68511Y31382D01*
G01X68615Y31487D01*
G01X68668Y31591D01*
G01X68668Y31748D01*
G01X68407Y31748D02*
G01X68668Y31748D01*
G01X69425Y32421D02*
G01X69011Y31332D01*
G01X69425Y32421D02*
G01X69842Y31332D01*
G01X69166Y31695D02*
G01X69687Y31695D01*
G01X70289Y32421D02*
G01X70860Y32421D01*
G01X70548Y32007D01*
G01X70703Y32007D01*
G01X70807Y31954D01*
G01X70860Y31903D01*
G01X70911Y31748D01*
G01X70911Y31644D01*
G01X70860Y31487D01*
G01X70756Y31382D01*
G01X70601Y31332D01*
G01X70444Y31332D01*
G01X70289Y31382D01*
G01X70236Y31436D01*
G01X70185Y31540D01*
G01X71307Y32162D02*
G01X71307Y32216D01*
G01X71358Y32320D01*
G01X71412Y32371D01*
G01X71516Y32421D01*
G01X71721Y32421D01*
G01X71826Y32371D01*
G01X71879Y32320D01*
G01X71930Y32216D01*
G01X71930Y32111D01*
G01X71879Y32007D01*
G01X71775Y31850D01*
G01X71254Y31332D01*
G01X71983Y31332D01*
G01X72585Y32421D02*
G01X72430Y32371D01*
G01X72377Y32266D01*
G01X72377Y32162D01*
G01X72430Y32058D01*
G01X72532Y32007D01*
G01X72740Y31954D01*
G01X72898Y31903D01*
G01X73002Y31799D01*
G01X73052Y31695D01*
G01X73052Y31540D01*
G01X73002Y31436D01*
G01X72948Y31382D01*
G01X72793Y31332D01*
G01X72585Y31332D01*
G01X72430Y31382D01*
G01X72377Y31436D01*
G01X72326Y31540D01*
G01X72326Y31695D01*
G01X72377Y31799D01*
G01X72481Y31903D01*
G01X72636Y31954D01*
G01X72844Y32007D01*
G01X72948Y32058D01*
G01X73002Y32162D01*
G01X73002Y32266D01*
G01X72948Y32371D01*
G01X72793Y32421D01*
G01X72585Y32421D01*
G01X73395Y32421D02*
G01X73395Y31332D01*
G01X73395Y32421D02*
G01X73863Y32421D01*
G01X74018Y32371D01*
G01X74071Y32320D01*
G01X74122Y32216D01*
G01X74122Y32058D01*
G01X74071Y31954D01*
G01X74018Y31903D01*
G01X73863Y31850D01*
G01X73395Y31850D01*
G01X74465Y31799D02*
G01X75402Y31799D01*
G01X75745Y32421D02*
G01X75745Y31332D01*
G01X75745Y32421D02*
G01X76212Y32421D01*
G01X76367Y32371D01*
G01X76418Y32320D01*
G01X76471Y32216D01*
G01X76471Y32058D01*
G01X76418Y31954D01*
G01X76367Y31903D01*
G01X76212Y31850D01*
G01X75745Y31850D01*
G01X76814Y32421D02*
G01X76814Y31644D01*
G01X76865Y31487D01*
G01X76969Y31382D01*
G01X77127Y31332D01*
G01X77231Y31332D01*
G01X77386Y31382D01*
G01X77490Y31487D01*
G01X77541Y31644D01*
G01X77541Y32421D01*
G54D42*
G01X94171Y25941D02*
G01X94171Y24851D01*
G01X94171Y25941D02*
G01X94639Y25941D01*
G01X94794Y25890D01*
G01X94847Y25839D01*
G01X94898Y25735D01*
G01X94898Y25631D01*
G01X94847Y25527D01*
G01X94794Y25474D01*
G01X94639Y25423D01*
G01X94171Y25423D01*
G01X94535Y25423D02*
G01X94898Y24851D01*
G01X95294Y25682D02*
G01X95294Y25735D01*
G01X95345Y25839D01*
G01X95398Y25890D01*
G01X95502Y25941D01*
G01X95708Y25941D01*
G01X95812Y25890D01*
G01X95866Y25839D01*
G01X95916Y25735D01*
G01X95916Y25631D01*
G01X95866Y25527D01*
G01X95761Y25369D01*
G01X95241Y24851D01*
G01X95970Y24851D01*
G01X20779Y31362D02*
G01X20726Y31466D01*
G01X20622Y31571D01*
G01X20520Y31621D01*
G01X20312Y31621D01*
G01X20208Y31571D01*
G01X20104Y31466D01*
G01X20050Y31362D01*
G01X19999Y31207D01*
G01X19999Y30948D01*
G01X20050Y30791D01*
G01X20104Y30687D01*
G01X20208Y30582D01*
G01X20312Y30532D01*
G01X20520Y30532D01*
G01X20622Y30582D01*
G01X20726Y30687D01*
G01X20779Y30791D01*
G01X21122Y31416D02*
G01X21226Y31466D01*
G01X21381Y31621D01*
G01X21381Y30532D01*
G01X77779Y42362D02*
G01X77726Y42466D01*
G01X77622Y42570D01*
G01X77520Y42621D01*
G01X77312Y42621D01*
G01X77208Y42570D01*
G01X77103Y42466D01*
G01X77050Y42362D01*
G01X76999Y42207D01*
G01X76999Y41948D01*
G01X77050Y41791D01*
G01X77103Y41686D01*
G01X77208Y41582D01*
G01X77312Y41532D01*
G01X77520Y41532D01*
G01X77622Y41582D01*
G01X77726Y41686D01*
G01X77779Y41791D01*
G01X78173Y42362D02*
G01X78173Y42415D01*
G01X78226Y42520D01*
G01X78277Y42570D01*
G01X78381Y42621D01*
G01X78589Y42621D01*
G01X78694Y42570D01*
G01X78744Y42520D01*
G01X78798Y42415D01*
G01X78798Y42311D01*
G01X78744Y42207D01*
G01X78640Y42050D01*
G01X78122Y41532D01*
G01X78848Y41532D01*
G01X77779Y39362D02*
G01X77726Y39466D01*
G01X77622Y39570D01*
G01X77520Y39621D01*
G01X77312Y39621D01*
G01X77208Y39570D01*
G01X77103Y39466D01*
G01X77050Y39362D01*
G01X76999Y39207D01*
G01X76999Y38948D01*
G01X77050Y38791D01*
G01X77103Y38686D01*
G01X77208Y38582D01*
G01X77312Y38532D01*
G01X77520Y38532D01*
G01X77622Y38582D01*
G01X77726Y38686D01*
G01X77779Y38791D01*
G01X78226Y39621D02*
G01X78798Y39621D01*
G01X78485Y39207D01*
G01X78640Y39207D01*
G01X78744Y39154D01*
G01X78798Y39103D01*
G01X78848Y38948D01*
G01X78848Y38844D01*
G01X78798Y38686D01*
G01X78694Y38582D01*
G01X78536Y38532D01*
G01X78381Y38532D01*
G01X78226Y38582D01*
G01X78173Y38636D01*
G01X78122Y38740D01*
G54D39*
G01X63577Y41667D02*
G01X63681Y41717D01*
G01X63836Y41872D01*
G01X63836Y40783D01*
G01X64804Y41717D02*
G01X64751Y41822D01*
G01X64596Y41872D01*
G01X64492Y41872D01*
G01X64337Y41822D01*
G01X64233Y41667D01*
G01X64179Y41405D01*
G01X64179Y41146D01*
G01X64233Y40938D01*
G01X64337Y40834D01*
G01X64492Y40783D01*
G01X64542Y40783D01*
G01X64700Y40834D01*
G01X64804Y40938D01*
G01X64855Y41095D01*
G01X64855Y41146D01*
G01X64804Y41301D01*
G01X64700Y41405D01*
G01X64542Y41458D01*
G01X64492Y41458D01*
G01X64337Y41405D01*
G01X64233Y41301D01*
G01X64179Y41146D01*
G01X65198Y41872D02*
G01X65198Y40783D01*
G01X65198Y41872D02*
G01X65614Y40783D01*
G01X66028Y41872D02*
G01X65614Y40783D01*
G01X66028Y41872D02*
G01X66028Y40783D01*
G01X66371Y41872D02*
G01X66371Y40783D01*
G01X67100Y41872D02*
G01X67100Y40783D01*
G01X66371Y41354D02*
G01X67100Y41354D01*
G01X68170Y41872D02*
G01X67443Y40783D01*
G01X67443Y41872D02*
G01X68170Y41872D01*
G01X67443Y40783D02*
G01X68170Y40783D01*
G54D42*
G01X93917Y29972D02*
G01X93917Y28882D01*
G01X93917Y29972D02*
G01X94280Y29972D01*
G01X94438Y29921D01*
G01X94539Y29817D01*
G01X94593Y29713D01*
G01X94643Y29558D01*
G01X94643Y29299D01*
G01X94593Y29141D01*
G01X94539Y29037D01*
G01X94438Y28933D01*
G01X94280Y28882D01*
G01X93917Y28882D01*
G01X95040Y29713D02*
G01X95040Y29766D01*
G01X95090Y29870D01*
G01X95144Y29921D01*
G01X95248Y29972D01*
G01X95454Y29972D01*
G01X95558Y29921D01*
G01X95611Y29870D01*
G01X95662Y29766D01*
G01X95662Y29662D01*
G01X95611Y29558D01*
G01X95507Y29400D01*
G01X94986Y28882D01*
G01X95715Y28882D01*
G01X68999Y62621D02*
G01X68999Y61532D01*
G01X69393Y62362D02*
G01X69393Y62415D01*
G01X69446Y62520D01*
G01X69497Y62570D01*
G01X69601Y62621D01*
G01X69810Y62621D01*
G01X69914Y62570D01*
G01X69965Y62520D01*
G01X70018Y62415D01*
G01X70018Y62311D01*
G01X69965Y62207D01*
G01X69863Y62050D01*
G01X69342Y61532D01*
G01X70069Y61532D01*
G01X71191Y62362D02*
G01X71141Y62466D01*
G01X71036Y62570D01*
G01X70932Y62621D01*
G01X70724Y62621D01*
G01X70620Y62570D01*
G01X70516Y62466D01*
G01X70465Y62362D01*
G01X70412Y62207D01*
G01X70412Y61948D01*
G01X70465Y61791D01*
G01X70516Y61686D01*
G01X70620Y61582D01*
G01X70724Y61532D01*
G01X70932Y61532D01*
G01X71036Y61582D01*
G01X71141Y61686D01*
G01X71191Y61791D01*
G01X71534Y61999D02*
G01X72469Y61999D01*
G01X72812Y62415D02*
G01X72916Y62466D01*
G01X73074Y62621D01*
G01X73074Y61532D01*
G01X27063Y47875D02*
G01X27063Y46786D01*
G01X27063Y47875D02*
G01X27531Y47875D01*
G01X27686Y47824D01*
G01X27739Y47774D01*
G01X27790Y47669D01*
G01X27790Y47565D01*
G01X27739Y47461D01*
G01X27686Y47408D01*
G01X27531Y47357D01*
G01X27063Y47357D01*
G01X27427Y47357D02*
G01X27790Y46786D01*
G01X28237Y47875D02*
G01X28808Y47875D01*
G01X28499Y47461D01*
G01X28653Y47461D01*
G01X28758Y47408D01*
G01X28808Y47357D01*
G01X28862Y47202D01*
G01X28862Y47098D01*
G01X28808Y46940D01*
G01X28704Y46836D01*
G01X28549Y46786D01*
G01X28394Y46786D01*
G01X28237Y46836D01*
G01X28186Y46890D01*
G01X28133Y46994D01*
G01X26999Y44621D02*
G01X26999Y43532D01*
G01X26999Y44621D02*
G01X27467Y44621D01*
G01X27622Y44570D01*
G01X27675Y44520D01*
G01X27726Y44415D01*
G01X27726Y44311D01*
G01X27675Y44207D01*
G01X27622Y44154D01*
G01X27467Y44103D01*
G01X26999Y44103D01*
G01X27363Y44103D02*
G01X27726Y43532D01*
G01X28589Y44621D02*
G01X28069Y43895D01*
G01X28849Y43895D01*
G01X28589Y44621D02*
G01X28589Y43532D01*
G01X55999Y62621D02*
G01X55999Y61532D01*
G01X56393Y62362D02*
G01X56393Y62415D01*
G01X56446Y62520D01*
G01X56497Y62570D01*
G01X56601Y62621D01*
G01X56810Y62621D01*
G01X56914Y62570D01*
G01X56965Y62520D01*
G01X57018Y62415D01*
G01X57018Y62311D01*
G01X56965Y62207D01*
G01X56863Y62050D01*
G01X56342Y61532D01*
G01X57069Y61532D01*
G01X58191Y62362D02*
G01X58141Y62466D01*
G01X58036Y62570D01*
G01X57932Y62621D01*
G01X57724Y62621D01*
G01X57620Y62570D01*
G01X57516Y62466D01*
G01X57465Y62362D01*
G01X57412Y62207D01*
G01X57412Y61948D01*
G01X57465Y61791D01*
G01X57516Y61686D01*
G01X57620Y61582D01*
G01X57724Y61532D01*
G01X57932Y61532D01*
G01X58036Y61582D01*
G01X58141Y61686D01*
G01X58191Y61791D01*
G01X58534Y61999D02*
G01X59469Y61999D01*
G01X59865Y62362D02*
G01X59865Y62415D01*
G01X59916Y62520D01*
G01X59969Y62570D01*
G01X60074Y62621D01*
G01X60279Y62621D01*
G01X60383Y62570D01*
G01X60437Y62520D01*
G01X60488Y62415D01*
G01X60488Y62311D01*
G01X60437Y62207D01*
G01X60333Y62050D01*
G01X59812Y61532D01*
G01X60541Y61532D01*
G01X44622Y62621D02*
G01X44104Y62621D01*
G01X44050Y62154D01*
G01X44104Y62207D01*
G01X44258Y62258D01*
G01X44416Y62258D01*
G01X44571Y62207D01*
G01X44675Y62103D01*
G01X44726Y61948D01*
G01X44726Y61844D01*
G01X44675Y61686D01*
G01X44571Y61582D01*
G01X44416Y61532D01*
G01X44258Y61532D01*
G01X44104Y61582D01*
G01X44050Y61636D01*
G01X43999Y61740D01*
G01X45069Y62621D02*
G01X45485Y61532D01*
G01X45902Y62621D02*
G01X45485Y61532D01*
G01X46245Y61999D02*
G01X47179Y61999D01*
G01X47573Y62362D02*
G01X47573Y62415D01*
G01X47627Y62520D01*
G01X47677Y62570D01*
G01X47781Y62621D01*
G01X47990Y62621D01*
G01X48094Y62570D01*
G01X48145Y62520D01*
G01X48198Y62415D01*
G01X48198Y62311D01*
G01X48145Y62207D01*
G01X48041Y62050D01*
G01X47522Y61532D01*
G01X48249Y61532D01*
G01X30631Y16745D02*
G01X31721Y16745D01*
G01X30631Y16745D02*
G01X30631Y17212D01*
G01X30682Y17367D01*
G01X30733Y17421D01*
G01X30837Y17471D01*
G01X30941Y17471D01*
G01X31045Y17421D01*
G01X31098Y17367D01*
G01X31149Y17212D01*
G01X31149Y16745D01*
G01X31149Y17108D02*
G01X31721Y17471D01*
G01X30837Y17814D02*
G01X30786Y17918D01*
G01X30631Y18076D01*
G01X31721Y18076D01*
G01X106312Y49669D02*
G01X106208Y49618D01*
G01X106103Y49514D01*
G01X106050Y49410D01*
G01X105999Y49255D01*
G01X105999Y48996D01*
G01X106050Y48839D01*
G01X106103Y48734D01*
G01X106208Y48630D01*
G01X106312Y48580D01*
G01X106520Y48580D01*
G01X106622Y48630D01*
G01X106726Y48734D01*
G01X106779Y48839D01*
G01X106830Y48996D01*
G01X106830Y49255D01*
G01X106779Y49410D01*
G01X106726Y49514D01*
G01X106622Y49618D01*
G01X106520Y49669D01*
G01X106312Y49669D01*
G01X106467Y48788D02*
G01X106779Y48475D01*
G01X107173Y49463D02*
G01X107277Y49514D01*
G01X107434Y49669D01*
G01X107434Y48580D01*
G01X94171Y45163D02*
G01X94171Y44074D01*
G01X94171Y45163D02*
G01X94639Y45163D01*
G01X94794Y45112D01*
G01X94847Y45062D01*
G01X94898Y44958D01*
G01X94898Y44853D01*
G01X94847Y44749D01*
G01X94794Y44696D01*
G01X94639Y44645D01*
G01X94171Y44645D01*
G01X94535Y44645D02*
G01X94898Y44074D01*
G01X95866Y45163D02*
G01X95345Y45163D01*
G01X95294Y44696D01*
G01X95345Y44749D01*
G01X95502Y44800D01*
G01X95657Y44800D01*
G01X95812Y44749D01*
G01X95916Y44645D01*
G01X95970Y44490D01*
G01X95970Y44386D01*
G01X95916Y44229D01*
G01X95812Y44124D01*
G01X95657Y44074D01*
G01X95502Y44074D01*
G01X95345Y44124D01*
G01X95294Y44178D01*
G01X95241Y44282D01*
G01X94171Y41590D02*
G01X94171Y40500D01*
G01X94171Y41590D02*
G01X94639Y41590D01*
G01X94794Y41539D01*
G01X94847Y41488D01*
G01X94898Y41384D01*
G01X94898Y41280D01*
G01X94847Y41176D01*
G01X94794Y41122D01*
G01X94639Y41071D01*
G01X94171Y41071D01*
G01X94535Y41071D02*
G01X94898Y40500D01*
G01X95866Y41435D02*
G01X95812Y41539D01*
G01X95657Y41590D01*
G01X95553Y41590D01*
G01X95398Y41539D01*
G01X95294Y41384D01*
G01X95241Y41122D01*
G01X95241Y40863D01*
G01X95294Y40655D01*
G01X95398Y40551D01*
G01X95553Y40500D01*
G01X95606Y40500D01*
G01X95761Y40551D01*
G01X95866Y40655D01*
G01X95916Y40812D01*
G01X95916Y40863D01*
G01X95866Y41018D01*
G01X95761Y41122D01*
G01X95606Y41176D01*
G01X95553Y41176D01*
G01X95398Y41122D01*
G01X95294Y41018D01*
G01X95241Y40863D01*
G54D39*
G01X93999Y63621D02*
G01X94258Y62532D01*
G01X94520Y63621D02*
G01X94258Y62532D01*
G01X94520Y63621D02*
G01X94779Y62532D01*
G01X95038Y63621D02*
G01X94779Y62532D01*
G01X95798Y63621D02*
G01X95381Y62532D01*
G01X95798Y63621D02*
G01X96212Y62532D01*
G01X95536Y62895D02*
G01X96057Y62895D01*
G01X96920Y63621D02*
G01X96920Y62532D01*
G01X96555Y63621D02*
G01X97284Y63621D01*
G01X97626Y63621D02*
G01X97626Y62532D01*
G01X97626Y63621D02*
G01X98302Y63621D01*
G01X97626Y63103D02*
G01X98040Y63103D01*
G01X97626Y62532D02*
G01X98302Y62532D01*
G01X98645Y63621D02*
G01X98645Y62532D01*
G01X98645Y63621D02*
G01X99112Y63621D01*
G01X99267Y63570D01*
G01X99321Y63520D01*
G01X99371Y63415D01*
G01X99371Y63311D01*
G01X99321Y63207D01*
G01X99267Y63154D01*
G01X99112Y63103D01*
G01X98645Y63103D01*
G01X99008Y63103D02*
G01X99371Y62532D01*
G01X100514Y63621D02*
G01X100514Y62532D01*
G01X100514Y63621D02*
G01X101190Y63621D01*
G01X100514Y63103D02*
G01X100931Y63103D01*
G01X101533Y63621D02*
G01X101533Y62532D01*
G01X101533Y62532D02*
G01X102155Y62532D01*
G01X102811Y63621D02*
G01X102706Y63570D01*
G01X102602Y63466D01*
G01X102551Y63362D01*
G01X102498Y63207D01*
G01X102498Y62948D01*
G01X102551Y62791D01*
G01X102602Y62686D01*
G01X102706Y62582D01*
G01X102811Y62532D01*
G01X103019Y62532D01*
G01X103123Y62582D01*
G01X103227Y62686D01*
G01X103278Y62791D01*
G01X103331Y62948D01*
G01X103331Y63207D01*
G01X103278Y63362D01*
G01X103227Y63466D01*
G01X103123Y63570D01*
G01X103019Y63621D01*
G01X102811Y63621D01*
G01X103674Y63621D02*
G01X103933Y62532D01*
G01X104192Y63621D02*
G01X103933Y62532D01*
G01X104192Y63621D02*
G01X104451Y62532D01*
G01X104713Y63621D02*
G01X104451Y62532D01*
G54D42*
G01X34312Y21621D02*
G01X34208Y21570D01*
G01X34104Y21466D01*
G01X34050Y21362D01*
G01X33999Y21207D01*
G01X33999Y20948D01*
G01X34050Y20791D01*
G01X34104Y20687D01*
G01X34208Y20582D01*
G01X34312Y20532D01*
G01X34520Y20532D01*
G01X34622Y20582D01*
G01X34726Y20687D01*
G01X34779Y20791D01*
G01X34830Y20948D01*
G01X34830Y21207D01*
G01X34779Y21362D01*
G01X34726Y21466D01*
G01X34622Y21570D01*
G01X34520Y21621D01*
G01X34312Y21621D01*
G01X34467Y20740D02*
G01X34779Y20427D01*
G01X35226Y21362D02*
G01X35226Y21416D01*
G01X35277Y21520D01*
G01X35330Y21570D01*
G01X35435Y21621D01*
G01X35640Y21621D01*
G01X35744Y21570D01*
G01X35798Y21520D01*
G01X35849Y21416D01*
G01X35849Y21311D01*
G01X35798Y21207D01*
G01X35694Y21050D01*
G01X35173Y20532D01*
G01X35902Y20532D01*
G01X38377Y16999D02*
G01X39467Y16999D01*
G01X38377Y16999D02*
G01X38377Y17466D01*
G01X38428Y17621D01*
G01X38479Y17675D01*
G01X38583Y17725D01*
G01X38687Y17725D01*
G01X38791Y17675D01*
G01X38844Y17621D01*
G01X38895Y17466D01*
G01X38895Y16999D01*
G01X38895Y17362D02*
G01X39467Y17725D01*
G01X38377Y18797D02*
G01X39467Y18277D01*
G01X38377Y18068D02*
G01X38377Y18797D01*
G01X15999Y15621D02*
G01X15999Y14532D01*
G01X15999Y15621D02*
G01X16467Y15621D01*
G01X16622Y15570D01*
G01X16675Y15520D01*
G01X16726Y15416D01*
G01X16726Y15311D01*
G01X16675Y15207D01*
G01X16622Y15154D01*
G01X16467Y15103D01*
G01X15999Y15103D02*
G01X16467Y15103D01*
G01X16622Y15050D01*
G01X16675Y14999D01*
G01X16726Y14895D01*
G01X16726Y14740D01*
G01X16675Y14636D01*
G01X16622Y14582D01*
G01X16467Y14532D01*
G01X15999Y14532D01*
G01X17122Y15362D02*
G01X17122Y15416D01*
G01X17173Y15520D01*
G01X17226Y15570D01*
G01X17330Y15621D01*
G01X17536Y15621D01*
G01X17640Y15570D01*
G01X17694Y15520D01*
G01X17744Y15416D01*
G01X17744Y15311D01*
G01X17694Y15207D01*
G01X17590Y15050D01*
G01X17069Y14532D01*
G01X17798Y14532D01*
G01X32779Y54739D02*
G01X32726Y54844D01*
G01X32622Y54948D01*
G01X32520Y54999D01*
G01X32312Y54999D01*
G01X32208Y54948D01*
G01X32103Y54844D01*
G01X32050Y54739D01*
G01X31999Y54584D01*
G01X31999Y54325D01*
G01X32050Y54168D01*
G01X32103Y54064D01*
G01X32208Y53960D01*
G01X32312Y53909D01*
G01X32520Y53909D01*
G01X32622Y53960D01*
G01X32726Y54064D01*
G01X32779Y54168D01*
G01X33640Y54999D02*
G01X33122Y54272D01*
G01X33902Y54272D01*
G01X33640Y54999D02*
G01X33640Y53909D01*
G54D43*
G01X35153Y57979D02*
G01X34114Y57979D01*
G01X34635Y58497D02*
G01X34635Y57459D01*
G54D42*
G01X93489Y22621D02*
G01X93489Y21532D01*
G01X93489Y22621D02*
G01X93957Y22621D01*
G01X94112Y22570D01*
G01X94165Y22520D01*
G01X94216Y22416D01*
G01X94216Y22311D01*
G01X94165Y22207D01*
G01X94112Y22154D01*
G01X93957Y22103D01*
G01X93489Y22103D01*
G01X93852Y22103D02*
G01X94216Y21532D01*
G01X94820Y22621D02*
G01X94663Y22570D01*
G01X94612Y22466D01*
G01X94612Y22362D01*
G01X94663Y22258D01*
G01X94767Y22207D01*
G01X94975Y22154D01*
G01X95130Y22103D01*
G01X95234Y21999D01*
G01X95288Y21895D01*
G01X95288Y21740D01*
G01X95234Y21636D01*
G01X95183Y21582D01*
G01X95026Y21532D01*
G01X94820Y21532D01*
G01X94663Y21582D01*
G01X94612Y21636D01*
G01X94559Y21740D01*
G01X94559Y21895D01*
G01X94612Y21999D01*
G01X94716Y22103D01*
G01X94871Y22154D01*
G01X95079Y22207D01*
G01X95183Y22258D01*
G01X95234Y22362D01*
G01X95234Y22466D01*
G01X95183Y22570D01*
G01X95026Y22621D01*
G01X94820Y22621D01*
G01X46377Y40999D02*
G01X47467Y40999D01*
G01X46377Y40999D02*
G01X46377Y41466D01*
G01X46428Y41621D01*
G01X46479Y41675D01*
G01X46583Y41725D01*
G01X46687Y41725D01*
G01X46791Y41675D01*
G01X46844Y41621D01*
G01X46895Y41466D01*
G01X46895Y40999D01*
G01X46895Y41362D02*
G01X47467Y41725D01*
G01X46740Y42744D02*
G01X46895Y42693D01*
G01X46999Y42589D01*
G01X47050Y42434D01*
G01X47050Y42381D01*
G01X46999Y42226D01*
G01X46895Y42122D01*
G01X46740Y42068D01*
G01X46687Y42068D01*
G01X46532Y42122D01*
G01X46428Y42226D01*
G01X46377Y42381D01*
G01X46377Y42434D01*
G01X46428Y42589D01*
G01X46532Y42693D01*
G01X46740Y42744D01*
G01X46999Y42744D01*
G01X47258Y42693D01*
G01X47416Y42589D01*
G01X47467Y42434D01*
G01X47467Y42330D01*
G01X47416Y42172D01*
G01X47312Y42122D01*
G01X46377Y28999D02*
G01X47467Y28999D01*
G01X46377Y28999D02*
G01X46377Y29466D01*
G01X46428Y29621D01*
G01X46479Y29674D01*
G01X46583Y29725D01*
G01X46687Y29725D01*
G01X46791Y29674D01*
G01X46844Y29621D01*
G01X46895Y29466D01*
G01X46895Y28999D01*
G01X46895Y29362D02*
G01X47467Y29725D01*
G01X46583Y30068D02*
G01X46532Y30172D01*
G01X46377Y30330D01*
G01X47467Y30330D01*
G01X46377Y30983D02*
G01X46428Y30828D01*
G01X46583Y30723D01*
G01X46844Y30673D01*
G01X46999Y30673D01*
G01X47258Y30723D01*
G01X47416Y30828D01*
G01X47467Y30983D01*
G01X47467Y31087D01*
G01X47416Y31244D01*
G01X47258Y31348D01*
G01X46999Y31399D01*
G01X46844Y31399D01*
G01X46583Y31348D01*
G01X46428Y31244D01*
G01X46377Y31087D01*
G01X46377Y30983D01*
G01X46653Y22507D02*
G01X46653Y21417D01*
G01X46653Y22507D02*
G01X47121Y22507D01*
G01X47276Y22456D01*
G01X47329Y22406D01*
G01X47380Y22301D01*
G01X47380Y22197D01*
G01X47329Y22093D01*
G01X47276Y22040D01*
G01X47121Y21989D01*
G01X46653Y21989D01*
G01X47017Y21989D02*
G01X47380Y21417D01*
G01X47723Y22301D02*
G01X47827Y22352D01*
G01X47984Y22507D01*
G01X47984Y21417D01*
G01X48327Y22301D02*
G01X48431Y22352D01*
G01X48586Y22507D01*
G01X48586Y21417D01*
G01X57999Y22621D02*
G01X57999Y21532D01*
G01X57999Y22621D02*
G01X58467Y22621D01*
G01X58622Y22570D01*
G01X58675Y22520D01*
G01X58726Y22415D01*
G01X58726Y22311D01*
G01X58675Y22207D01*
G01X58622Y22154D01*
G01X58467Y22103D01*
G01X57999Y22103D01*
G01X58363Y22103D02*
G01X58726Y21532D01*
G01X59069Y22415D02*
G01X59173Y22466D01*
G01X59330Y22621D01*
G01X59330Y21532D01*
G01X59724Y22362D02*
G01X59724Y22415D01*
G01X59777Y22520D01*
G01X59828Y22570D01*
G01X59932Y22621D01*
G01X60141Y22621D01*
G01X60245Y22570D01*
G01X60295Y22520D01*
G01X60349Y22415D01*
G01X60349Y22311D01*
G01X60295Y22207D01*
G01X60191Y22050D01*
G01X59673Y21532D01*
G01X60400Y21532D01*
G01X69999Y22621D02*
G01X69999Y21532D01*
G01X69999Y22621D02*
G01X70467Y22621D01*
G01X70622Y22570D01*
G01X70675Y22520D01*
G01X70726Y22415D01*
G01X70726Y22311D01*
G01X70675Y22207D01*
G01X70622Y22154D01*
G01X70467Y22103D01*
G01X69999Y22103D01*
G01X70363Y22103D02*
G01X70726Y21532D01*
G01X71069Y22415D02*
G01X71173Y22466D01*
G01X71330Y22621D01*
G01X71330Y21532D01*
G01X71777Y22621D02*
G01X72349Y22621D01*
G01X72036Y22207D01*
G01X72191Y22207D01*
G01X72296Y22154D01*
G01X72349Y22103D01*
G01X72400Y21948D01*
G01X72400Y21844D01*
G01X72349Y21686D01*
G01X72245Y21582D01*
G01X72087Y21532D01*
G01X71932Y21532D01*
G01X71777Y21582D01*
G01X71724Y21636D01*
G01X71673Y21740D01*
G01X81999Y22621D02*
G01X81999Y21532D01*
G01X81999Y22621D02*
G01X82467Y22621D01*
G01X82622Y22570D01*
G01X82675Y22520D01*
G01X82726Y22415D01*
G01X82726Y22311D01*
G01X82675Y22207D01*
G01X82622Y22154D01*
G01X82467Y22103D01*
G01X81999Y22103D01*
G01X82363Y22103D02*
G01X82726Y21532D01*
G01X83069Y22415D02*
G01X83173Y22466D01*
G01X83330Y22621D01*
G01X83330Y21532D01*
G01X84191Y22621D02*
G01X83673Y21895D01*
G01X84450Y21895D01*
G01X84191Y22621D02*
G01X84191Y21532D01*
G54D39*
G01X104288Y43309D02*
G01X104288Y42220D01*
G01X104288Y43309D02*
G01X104705Y42220D01*
G01X105119Y43309D02*
G01X104705Y42220D01*
G01X105119Y43309D02*
G01X105119Y42220D01*
G01X105774Y43309D02*
G01X105670Y43258D01*
G01X105566Y43154D01*
G01X105515Y43050D01*
G01X105462Y42895D01*
G01X105462Y42636D01*
G01X105515Y42479D01*
G01X105566Y42375D01*
G01X105670Y42270D01*
G01X105774Y42220D01*
G01X105982Y42220D01*
G01X106086Y42270D01*
G01X106191Y42375D01*
G01X106241Y42479D01*
G01X106295Y42636D01*
G01X106295Y42895D01*
G01X106241Y43050D01*
G01X106191Y43154D01*
G01X106086Y43258D01*
G01X105982Y43309D01*
G01X105774Y43309D01*
G01X106638Y43309D02*
G01X106638Y42220D01*
G01X107707Y43154D02*
G01X107603Y43258D01*
G01X107448Y43309D01*
G01X107240Y43309D01*
G01X107082Y43258D01*
G01X106980Y43154D01*
G01X106980Y43050D01*
G01X107031Y42946D01*
G01X107082Y42895D01*
G01X107186Y42842D01*
G01X107499Y42738D01*
G01X107603Y42687D01*
G01X107654Y42636D01*
G01X107707Y42532D01*
G01X107707Y42375D01*
G01X107603Y42270D01*
G01X107448Y42220D01*
G01X107240Y42220D01*
G01X107082Y42270D01*
G01X106980Y42375D01*
G01X108413Y43309D02*
G01X108413Y42220D01*
G01X108050Y43309D02*
G01X108776Y43309D01*
G54D42*
G01X82771Y13462D02*
G01X82667Y13411D01*
G01X82563Y13307D01*
G01X82510Y13203D01*
G01X82459Y13048D01*
G01X82459Y12789D01*
G01X82510Y12632D01*
G01X82563Y12528D01*
G01X82667Y12423D01*
G01X82771Y12373D01*
G01X82980Y12373D01*
G01X83081Y12423D01*
G01X83185Y12528D01*
G01X83239Y12632D01*
G01X83289Y12789D01*
G01X83289Y13048D01*
G01X83239Y13203D01*
G01X83185Y13307D01*
G01X83081Y13411D01*
G01X82980Y13462D01*
G01X82771Y13462D01*
G01X82926Y12581D02*
G01X83239Y12268D01*
G01X83736Y13462D02*
G01X84308Y13462D01*
G01X83996Y13048D01*
G01X84153Y13048D01*
G01X84257Y12995D01*
G01X84308Y12944D01*
G01X84361Y12789D01*
G01X84361Y12685D01*
G01X84308Y12528D01*
G01X84204Y12423D01*
G01X84049Y12373D01*
G01X83894Y12373D01*
G01X83736Y12423D01*
G01X83686Y12477D01*
G01X83632Y12581D01*
G01X46868Y13716D02*
G01X46764Y13665D01*
G01X46660Y13561D01*
G01X46606Y13457D01*
G01X46555Y13302D01*
G01X46555Y13043D01*
G01X46606Y12886D01*
G01X46660Y12782D01*
G01X46764Y12677D01*
G01X46868Y12627D01*
G01X47076Y12627D01*
G01X47178Y12677D01*
G01X47282Y12782D01*
G01X47335Y12886D01*
G01X47386Y13043D01*
G01X47386Y13302D01*
G01X47335Y13457D01*
G01X47282Y13561D01*
G01X47178Y13665D01*
G01X47076Y13716D01*
G01X46868Y13716D01*
G01X47023Y12835D02*
G01X47335Y12522D01*
G01X48354Y13561D02*
G01X48300Y13665D01*
G01X48145Y13716D01*
G01X48041Y13716D01*
G01X47886Y13665D01*
G01X47782Y13511D01*
G01X47729Y13249D01*
G01X47729Y12990D01*
G01X47782Y12782D01*
G01X47886Y12677D01*
G01X48041Y12627D01*
G01X48092Y12627D01*
G01X48250Y12677D01*
G01X48354Y12782D01*
G01X48404Y12939D01*
G01X48404Y12990D01*
G01X48354Y13145D01*
G01X48250Y13249D01*
G01X48092Y13302D01*
G01X48041Y13302D01*
G01X47886Y13249D01*
G01X47782Y13145D01*
G01X47729Y12990D01*
G01X70721Y13716D02*
G01X70616Y13665D01*
G01X70512Y13561D01*
G01X70459Y13457D01*
G01X70408Y13302D01*
G01X70408Y13043D01*
G01X70459Y12886D01*
G01X70512Y12782D01*
G01X70616Y12677D01*
G01X70721Y12627D01*
G01X70929Y12627D01*
G01X71030Y12677D01*
G01X71135Y12782D01*
G01X71188Y12886D01*
G01X71239Y13043D01*
G01X71239Y13302D01*
G01X71188Y13457D01*
G01X71135Y13561D01*
G01X71030Y13665D01*
G01X70929Y13716D01*
G01X70721Y13716D01*
G01X70876Y12835D02*
G01X71188Y12522D01*
G01X72102Y13716D02*
G01X71582Y12990D01*
G01X72361Y12990D01*
G01X72102Y13716D02*
G01X72102Y12627D01*
G01X58921Y13716D02*
G01X58817Y13665D01*
G01X58713Y13561D01*
G01X58660Y13457D01*
G01X58609Y13302D01*
G01X58609Y13043D01*
G01X58660Y12886D01*
G01X58713Y12782D01*
G01X58817Y12677D01*
G01X58921Y12627D01*
G01X59130Y12627D01*
G01X59231Y12677D01*
G01X59335Y12782D01*
G01X59389Y12886D01*
G01X59440Y13043D01*
G01X59440Y13302D01*
G01X59389Y13457D01*
G01X59335Y13561D01*
G01X59231Y13665D01*
G01X59130Y13716D01*
G01X58921Y13716D01*
G01X59076Y12835D02*
G01X59389Y12522D01*
G01X60407Y13716D02*
G01X59887Y13716D01*
G01X59836Y13249D01*
G01X59887Y13302D01*
G01X60044Y13353D01*
G01X60199Y13353D01*
G01X60354Y13302D01*
G01X60458Y13198D01*
G01X60511Y13043D01*
G01X60511Y12939D01*
G01X60458Y12782D01*
G01X60354Y12677D01*
G01X60199Y12627D01*
G01X60044Y12627D01*
G01X59887Y12677D01*
G01X59836Y12731D01*
G01X59782Y12835D01*
G01X38330Y31108D02*
G01X38381Y31004D01*
G01X38485Y30900D01*
G01X38589Y30847D01*
G01X38744Y30796D01*
G01X39003Y30796D01*
G01X39161Y30847D01*
G01X39265Y30900D01*
G01X39369Y31004D01*
G01X39420Y31108D01*
G01X39420Y31317D01*
G01X39369Y31418D01*
G01X39265Y31522D01*
G01X39161Y31576D01*
G01X39003Y31627D01*
G01X38744Y31627D01*
G01X38589Y31576D01*
G01X38485Y31522D01*
G01X38381Y31418D01*
G01X38330Y31317D01*
G01X38330Y31108D01*
G01X39212Y31263D02*
G01X39524Y31576D01*
G01X38330Y32698D02*
G01X39420Y32178D01*
G01X38330Y31969D02*
G01X38330Y32698D01*
G01X38378Y41314D02*
G01X38428Y41209D01*
G01X38533Y41105D01*
G01X38637Y41052D01*
G01X38792Y41001D01*
G01X39051Y41001D01*
G01X39208Y41052D01*
G01X39312Y41105D01*
G01X39416Y41209D01*
G01X39467Y41314D01*
G01X39467Y41522D01*
G01X39416Y41623D01*
G01X39312Y41728D01*
G01X39208Y41781D01*
G01X39051Y41832D01*
G01X38792Y41832D01*
G01X38637Y41781D01*
G01X38533Y41728D01*
G01X38428Y41623D01*
G01X38378Y41522D01*
G01X38378Y41314D01*
G01X39259Y41469D02*
G01X39571Y41781D01*
G01X38378Y42436D02*
G01X38428Y42279D01*
G01X38533Y42228D01*
G01X38637Y42228D01*
G01X38741Y42279D01*
G01X38792Y42383D01*
G01X38845Y42591D01*
G01X38896Y42746D01*
G01X39000Y42850D01*
G01X39104Y42904D01*
G01X39259Y42904D01*
G01X39363Y42850D01*
G01X39416Y42800D01*
G01X39467Y42642D01*
G01X39467Y42436D01*
G01X39416Y42279D01*
G01X39363Y42228D01*
G01X39259Y42175D01*
G01X39104Y42175D01*
G01X39000Y42228D01*
G01X38896Y42332D01*
G01X38845Y42487D01*
G01X38792Y42695D01*
G01X38741Y42800D01*
G01X38637Y42850D01*
G01X38533Y42850D01*
G01X38428Y42800D01*
G01X38378Y42642D01*
G01X38378Y42436D01*
G01X95451Y13764D02*
G01X95347Y13713D01*
G01X95243Y13609D01*
G01X95189Y13505D01*
G01X95138Y13350D01*
G01X95138Y13091D01*
G01X95189Y12933D01*
G01X95243Y12829D01*
G01X95347Y12725D01*
G01X95451Y12674D01*
G01X95659Y12674D01*
G01X95761Y12725D01*
G01X95865Y12829D01*
G01X95918Y12933D01*
G01X95969Y13091D01*
G01X95969Y13350D01*
G01X95918Y13505D01*
G01X95865Y13609D01*
G01X95761Y13713D01*
G01X95659Y13764D01*
G01X95451Y13764D01*
G01X95606Y12882D02*
G01X95918Y12570D01*
G01X96988Y13401D02*
G01X96937Y13246D01*
G01X96833Y13141D01*
G01X96675Y13091D01*
G01X96624Y13091D01*
G01X96469Y13141D01*
G01X96365Y13246D01*
G01X96312Y13401D01*
G01X96312Y13454D01*
G01X96365Y13609D01*
G01X96469Y13713D01*
G01X96624Y13764D01*
G01X96675Y13764D01*
G01X96833Y13713D01*
G01X96937Y13609D01*
G01X96988Y13401D01*
G01X96988Y13141D01*
G01X96937Y12882D01*
G01X96833Y12725D01*
G01X96675Y12674D01*
G01X96574Y12674D01*
G01X96416Y12725D01*
G01X96365Y12829D01*
G54D39*
G01X54998Y44625D02*
G01X54998Y43533D01*
G01X54998Y44625D02*
G01X55465Y44625D01*
G01X55620Y44571D01*
G01X55674Y44521D01*
G01X55725Y44416D01*
G01X55725Y44312D01*
G01X55674Y44208D01*
G01X55620Y44157D01*
G01X55465Y44104D01*
G01X54998Y44104D01*
G01X55361Y44104D02*
G01X55725Y43533D01*
G01X56847Y44363D02*
G01X56794Y44467D01*
G01X56692Y44571D01*
G01X56588Y44625D01*
G01X56380Y44625D01*
G01X56276Y44571D01*
G01X56172Y44467D01*
G01X56121Y44363D01*
G01X56067Y44208D01*
G01X56067Y43949D01*
G01X56121Y43792D01*
G01X56172Y43688D01*
G01X56276Y43586D01*
G01X56380Y43533D01*
G01X56588Y43533D01*
G01X56692Y43586D01*
G01X56794Y43688D01*
G01X56847Y43792D01*
G01X14376Y36000D02*
G01X15465Y36000D01*
G01X14376Y36000D02*
G01X14376Y36363D01*
G01X14426Y36520D01*
G01X14531Y36625D01*
G01X14635Y36675D01*
G01X14792Y36729D01*
G01X15051Y36729D01*
G01X15206Y36675D01*
G01X15310Y36625D01*
G01X15415Y36520D01*
G01X15465Y36363D01*
G01X15465Y36000D01*
G01X14531Y37798D02*
G01X14426Y37694D01*
G01X14376Y37539D01*
G01X14376Y37331D01*
G01X14426Y37176D01*
G01X14531Y37072D01*
G01X14635Y37072D01*
G01X14739Y37122D01*
G01X14792Y37176D01*
G01X14843Y37277D01*
G01X14947Y37590D01*
G01X14998Y37694D01*
G01X15051Y37747D01*
G01X15155Y37798D01*
G01X15310Y37798D01*
G01X15415Y37694D01*
G01X15465Y37539D01*
G01X15465Y37331D01*
G01X15415Y37176D01*
G01X15310Y37072D01*
G01X14584Y38141D02*
G01X14531Y38245D01*
G01X14376Y38400D01*
G01X15465Y38400D01*
G01X14376Y38847D02*
G01X14376Y39419D01*
G01X14792Y39106D01*
G01X14792Y39264D01*
G01X14843Y39368D01*
G01X14894Y39419D01*
G01X15051Y39472D01*
G01X15155Y39472D01*
G01X15310Y39419D01*
G01X15415Y39314D01*
G01X15465Y39159D01*
G01X15465Y39005D01*
G01X15415Y38847D01*
G01X15364Y38796D01*
G01X15260Y38743D01*
G01X14376Y40125D02*
G01X14426Y39970D01*
G01X14584Y39866D01*
G01X14843Y39815D01*
G01X14998Y39815D01*
G01X15260Y39866D01*
G01X15415Y39970D01*
G01X15465Y40125D01*
G01X15465Y40229D01*
G01X15415Y40386D01*
G01X15260Y40490D01*
G01X14998Y40541D01*
G01X14843Y40541D01*
G01X14584Y40490D01*
G01X14426Y40386D01*
G01X14376Y40229D01*
G01X14376Y40125D01*
G01X14376Y41611D02*
G01X15465Y41092D01*
G01X14376Y40884D02*
G01X14376Y41611D01*
G01X4375Y39310D02*
G01X4428Y39206D01*
G01X4532Y39102D01*
G01X4636Y39051D01*
G01X4791Y38998D01*
G01X5050Y38998D01*
G01X5208Y39051D01*
G01X5312Y39102D01*
G01X5416Y39206D01*
G01X5467Y39310D01*
G01X5467Y39519D01*
G01X5416Y39623D01*
G01X5312Y39727D01*
G01X5208Y39778D01*
G01X5050Y39831D01*
G01X4791Y39831D01*
G01X4636Y39778D01*
G01X4532Y39727D01*
G01X4428Y39623D01*
G01X4375Y39519D01*
G01X4375Y39310D01*
G01X5259Y39465D02*
G01X5571Y39778D01*
G01X4740Y40174D02*
G01X5259Y40174D01*
G01X5416Y40225D01*
G01X5467Y40329D01*
G01X5467Y40484D01*
G01X5416Y40588D01*
G01X5259Y40745D01*
G01X4740Y40745D02*
G01X5467Y40745D01*
G01X4740Y41711D02*
G01X5467Y41711D01*
G01X4895Y41711D02*
G01X4791Y41606D01*
G01X4740Y41502D01*
G01X4740Y41347D01*
G01X4791Y41243D01*
G01X4895Y41139D01*
G01X5050Y41088D01*
G01X5154Y41088D01*
G01X5312Y41139D01*
G01X5416Y41243D01*
G01X5467Y41347D01*
G01X5467Y41502D01*
G01X5416Y41606D01*
G01X5312Y41711D01*
G01X4740Y42054D02*
G01X5467Y42054D01*
G01X5050Y42054D02*
G01X4895Y42107D01*
G01X4791Y42208D01*
G01X4740Y42313D01*
G01X4740Y42470D01*
G01X4375Y42968D02*
G01X5259Y42968D01*
G01X5416Y43021D01*
G01X5467Y43123D01*
G01X5467Y43227D01*
G01X4740Y42813D02*
G01X4740Y43176D01*
G01X4740Y44141D02*
G01X5467Y43570D01*
G01X4740Y43570D02*
G01X4740Y44141D01*
G01X5467Y43570D02*
G01X5467Y44141D01*
G54D44*
G01X83779Y44450D02*
G01X83726Y44554D01*
G01X83624Y44658D01*
G01X83520Y44709D01*
G01X83312Y44709D01*
G01X83207Y44658D01*
G01X83103Y44554D01*
G01X83052Y44450D01*
G01X82999Y44295D01*
G01X82999Y44035D01*
G01X83052Y43878D01*
G01X83103Y43774D01*
G01X83207Y43670D01*
G01X83312Y43619D01*
G01X83520Y43619D01*
G01X83624Y43670D01*
G01X83726Y43774D01*
G01X83779Y43878D01*
G01X84434Y44709D02*
G01X84330Y44658D01*
G01X84226Y44554D01*
G01X84173Y44450D01*
G01X84122Y44295D01*
G01X84122Y44035D01*
G01X84173Y43878D01*
G01X84226Y43774D01*
G01X84330Y43670D01*
G01X84434Y43619D01*
G01X84640Y43619D01*
G01X84744Y43670D01*
G01X84848Y43774D01*
G01X84902Y43878D01*
G01X84952Y44035D01*
G01X84952Y44295D01*
G01X84902Y44450D01*
G01X84848Y44554D01*
G01X84744Y44658D01*
G01X84640Y44709D01*
G01X84434Y44709D01*
G01X85295Y44709D02*
G01X85295Y43619D01*
G01X85295Y44709D02*
G01X85712Y43619D01*
G01X86126Y44709D02*
G01X85712Y43619D01*
G01X86126Y44709D02*
G01X86126Y43619D01*
G54D42*
G01X30329Y11789D02*
G01X30329Y10700D01*
G01X30329Y11789D02*
G01X30797Y11789D01*
G01X30952Y11739D01*
G01X31005Y11688D01*
G01X31056Y11584D01*
G01X31056Y11480D01*
G01X31005Y11375D01*
G01X30952Y11322D01*
G01X30797Y11271D01*
G01X30329Y11271D02*
G01X30797Y11271D01*
G01X30952Y11218D01*
G01X31005Y11167D01*
G01X31056Y11063D01*
G01X31056Y10908D01*
G01X31005Y10804D01*
G01X30952Y10751D01*
G01X30797Y10700D01*
G01X30329Y10700D01*
G01X31399Y11789D02*
G01X31399Y11012D01*
G01X31452Y10855D01*
G01X31556Y10751D01*
G01X31711Y10700D01*
G01X31815Y10700D01*
G01X31970Y10751D01*
G01X32074Y10855D01*
G01X32128Y11012D01*
G01X32128Y11789D01*
G01X33197Y11789D02*
G01X32471Y10700D01*
G01X32471Y11789D02*
G01X33197Y11789D01*
G01X32471Y10700D02*
G01X33197Y10700D01*
G01X34266Y11789D02*
G01X33540Y10700D01*
G01X33540Y11789D02*
G01X34266Y11789D01*
G01X33540Y10700D02*
G01X34266Y10700D01*
G01X34609Y11789D02*
G01X34609Y10700D01*
G01X34609Y11789D02*
G01X35285Y11789D01*
G01X34609Y11271D02*
G01X35026Y11271D01*
G01X34609Y10700D02*
G01X35285Y10700D01*
G01X35628Y11789D02*
G01X35628Y10700D01*
G01X35628Y11789D02*
G01X36095Y11789D01*
G01X36253Y11739D01*
G01X36303Y11688D01*
G01X36357Y11584D01*
G01X36357Y11480D01*
G01X36303Y11375D01*
G01X36253Y11322D01*
G01X36095Y11271D01*
G01X35628Y11271D01*
G01X35994Y11271D02*
G01X36357Y10700D01*
G54D39*
G01X104208Y24622D02*
G01X104208Y23533D01*
G01X104208Y24622D02*
G01X104675Y24622D01*
G01X104830Y24571D01*
G01X104884Y24518D01*
G01X104935Y24414D01*
G01X104935Y24259D01*
G01X104884Y24155D01*
G01X104830Y24104D01*
G01X104675Y24051D01*
G01X104208Y24051D01*
G01X105590Y24622D02*
G01X105486Y24571D01*
G01X105382Y24467D01*
G01X105331Y24363D01*
G01X105277Y24206D01*
G01X105277Y23947D01*
G01X105331Y23792D01*
G01X105382Y23688D01*
G01X105486Y23583D01*
G01X105590Y23533D01*
G01X105798Y23533D01*
G01X105902Y23583D01*
G01X106006Y23688D01*
G01X106057Y23792D01*
G01X106111Y23947D01*
G01X106111Y24206D01*
G01X106057Y24363D01*
G01X106006Y24467D01*
G01X105902Y24571D01*
G01X105798Y24622D01*
G01X105590Y24622D01*
G01X106453Y24622D02*
G01X106713Y23533D01*
G01X106972Y24622D02*
G01X106713Y23533D01*
G01X106972Y24622D02*
G01X107231Y23533D01*
G01X107492Y24622D02*
G01X107231Y23533D01*
G01X107835Y24622D02*
G01X107835Y23533D01*
G01X107835Y24622D02*
G01X108511Y24622D01*
G01X107835Y24104D02*
G01X108249Y24104D01*
G01X107835Y23533D02*
G01X108511Y23533D01*
G01X108854Y24622D02*
G01X108854Y23533D01*
G01X108854Y24622D02*
G01X109321Y24622D01*
G01X109476Y24571D01*
G01X109529Y24518D01*
G01X109580Y24414D01*
G01X109580Y24310D01*
G01X109529Y24206D01*
G01X109476Y24155D01*
G01X109321Y24104D01*
G01X108854Y24104D01*
G01X109217Y24104D02*
G01X109580Y23533D01*
G01X92000Y39624D02*
G01X92000Y38531D01*
G01X92000Y39624D02*
G01X92467Y39624D01*
G01X92622Y39570D01*
G01X92675Y39519D01*
G01X92726Y39415D01*
G01X92726Y39311D01*
G01X92675Y39207D01*
G01X92622Y39154D01*
G01X92467Y39103D01*
G01X92000Y39103D01*
G01X92363Y39103D02*
G01X92726Y38531D01*
G01X93069Y39624D02*
G01X93069Y38531D01*
G01X93069Y39624D02*
G01X93745Y39624D01*
G01X93069Y39103D02*
G01X93486Y39103D01*
G01X93069Y38531D02*
G01X93745Y38531D01*
G01X94814Y39466D02*
G01X94712Y39570D01*
G01X94555Y39624D01*
G01X94347Y39624D01*
G01X94192Y39570D01*
G01X94088Y39466D01*
G01X94088Y39362D01*
G01X94141Y39258D01*
G01X94192Y39207D01*
G01X94296Y39154D01*
G01X94608Y39052D01*
G01X94712Y38999D01*
G01X94763Y38948D01*
G01X94814Y38844D01*
G01X94814Y38686D01*
G01X94712Y38582D01*
G01X94555Y38531D01*
G01X94347Y38531D01*
G01X94192Y38582D01*
G01X94088Y38686D01*
G01X95157Y39624D02*
G01X95157Y38531D01*
G01X95157Y39624D02*
G01X95833Y39624D01*
G01X95157Y39103D02*
G01X95573Y39103D01*
G01X95157Y38531D02*
G01X95833Y38531D01*
G01X96541Y39624D02*
G01X96541Y38531D01*
G01X96175Y39624D02*
G01X96904Y39624D01*
G54D42*
G01X82622Y62621D02*
G01X82103Y62621D01*
G01X82050Y62154D01*
G01X82103Y62207D01*
G01X82258Y62258D01*
G01X82416Y62258D01*
G01X82571Y62207D01*
G01X82675Y62103D01*
G01X82726Y61948D01*
G01X82726Y61844D01*
G01X82675Y61686D01*
G01X82571Y61582D01*
G01X82416Y61532D01*
G01X82258Y61532D01*
G01X82103Y61582D01*
G01X82050Y61636D01*
G01X81999Y61740D01*
G01X83069Y62621D02*
G01X83485Y61532D01*
G01X83902Y62621D02*
G01X83485Y61532D01*
G01X84245Y61999D02*
G01X85179Y61999D01*
G01X85522Y62415D02*
G01X85626Y62466D01*
G01X85781Y62621D01*
G01X85781Y61532D01*
G54D37*
G75*
G01X85510Y33460D02*
G3X85510Y33455I-300J-3D01*
G01*
G54D10*
G75*
G01X86211Y32444D02*
G3X86211Y31174I0J-635D01*
G01*
G54D38*
G75*
G01X86450Y35609D02*
G3X86450Y35607I-150J-1D01*
G01*
G54D10*
G75*
G01X62300Y42336D02*
G3X62300Y37840I0J-2248D01*
G01*
G75*
G01X68599Y37840D02*
G3X68599Y42336I0J2248D01*
G01*
G75*
G01X33009Y15018D02*
G3X33009Y18981I1498J1981D01*
G01*
G75*
G01X27876Y15063D02*
G3X27873Y14867I-10986J45D01*
G01*
G54D39*
G75*
G01X33000Y49499D02*
G3X32890Y49501I3J5000D01*
G01*
G54D10*
G75*
G01X16081Y45270D02*
G2X13541Y45270I-1270J0D01*
G01*
G75*
G01X96459Y35387D02*
G03X96459Y35387I-1778J0D01*
G01*
M00*
M02*
