;PTH Drill file created by EasyEDA 
M48
METRIC,LZ,000.000
;Holesize 1 = 0.310 METRIC
T01C0.310
;Holesize 2 = 0.701 METRIC
T02C0.701
;Holesize 3 = 0.712 METRIC
T03C0.712
;Holesize 4 = 0.889 METRIC
T04C0.889
;Holesize 5 = 0.900 METRIC
T05C0.900
;Holesize 6 = 0.901 METRIC
T06C0.901
;Holesize 7 = 0.915 METRIC
T07C0.915
;Holesize 8 = 1.000 METRIC
T08C1.000
;Holesize 9 = 1.016 METRIC
T09C1.016
;Holesize 10 = 1.100 METRIC
T10C1.100
;Holesize 11 = 1.101 METRIC
T11C1.101
;Holesize 12 = 1.200 METRIC
T12C1.200
;Holesize 13 = 1.220 METRIC
T13C1.220
;Holesize 14 = 1.501 METRIC
T14C1.501
%
G05
G90
T01
X+085839Y+046393
X+088305Y+039862
T02
X+062999Y+040087
X+067900Y+040087
X+034510Y+018269
X+034510Y+016999
X+034510Y+015729
T03
X+017822Y+029958
X+017822Y+032498
X+072958Y+042177
X+075498Y+042177
X+072958Y+039177
X+075498Y+039177
T04
X+011000Y+044000
X+011000Y+041460
X+011000Y+038920
X+011000Y+036380
X+018620Y+036380
X+018620Y+038920
X+018620Y+041460
X+018620Y+044000
T05
X+098489Y+025572
X+090869Y+025572
X+022999Y+046999
X+030619Y+046999
X+022999Y+043999
X+030619Y+043999
X+030999Y+020809
X+030999Y+013189
X+090869Y+044795
X+098489Y+044795
X+090869Y+041221
X+098489Y+041221
X+038999Y+013189
X+038999Y+020809
X+098489Y+021999
X+090869Y+021999
X+046999Y+044999
X+046999Y+037379
X+046999Y+025999
X+046999Y+033619
X+042998Y+021999
X+050618Y+021999
X+062590Y+021999
X+054970Y+021999
X+074556Y+021999
X+066936Y+021999
X+086523Y+021999
X+078903Y+021999
T06
X+051999Y+027999
X+054539Y+027999
X+057079Y+027999
X+059619Y+027999
X+062159Y+027999
X+064699Y+027999
X+067239Y+027999
X+069779Y+027999
X+072319Y+027999
X+074859Y+027999
X+077399Y+027999
X+079939Y+027999
X+082479Y+027999
X+085019Y+027999
X+051999Y+035619
X+054539Y+035619
X+057079Y+035619
X+059619Y+035619
X+062159Y+035619
X+064699Y+035619
X+067239Y+035619
X+069779Y+035619
X+072319Y+035619
X+074859Y+035619
X+077399Y+035619
X+079939Y+035619
X+082479Y+035619
X+085021Y+035618
T07
X+056540Y+039999
X+054000Y+039999
X+004000Y+035999
X+006540Y+035999
X+083461Y+040086
X+086001Y+040086
T08
X+080170Y+016141G85X+080175Y+016141
X+082710Y+016141G85X+082715Y+016141
X+085250Y+016141G85X+085255Y+016141
X+044267Y+016141G85X+044272Y+016141
X+046807Y+016141G85X+046812Y+016141
X+049347Y+016141G85X+049352Y+016141
X+068204Y+016141G85X+068209Y+016141
X+070744Y+016141G85X+070749Y+016141
X+073284Y+016141G85X+073289Y+016141
X+056238Y+016141G85X+056243Y+016141
X+058778Y+016141G85X+058783Y+016141
X+061318Y+016141G85X+061323Y+016141
X+041998Y+033002G85X+041998Y+032997
X+041998Y+030462G85X+041998Y+030457
X+041998Y+027922G85X+041998Y+027917
X+041998Y+044002G85X+041998Y+043997
X+041998Y+041462G85X+041998Y+041457
X+041998Y+038922G85X+041998Y+038917
X+092135Y+016141G85X+092141Y+016141
X+094675Y+016141G85X+094681Y+016141
X+097215Y+016141G85X+097221Y+016141
T09
X+097932Y+033126
X+091429Y+033126
X+097932Y+037647
X+091429Y+037647
T10
X+032999Y+056997G85X+032999Y+056997
X+032999Y+051998G85X+032999Y+051998
T11
X+090869Y+029349
X+098489Y+029349
T12
X+073539Y+056999
X+068459Y+056999
X+060689Y+056999
X+055609Y+056999
X+042760Y+056999
X+047840Y+056999
X+104569Y+056946G85X+104470Y+056946
X+099570Y+056946G85X+099468Y+056946
X+094569Y+056946G85X+094470Y+056946
X+106291Y+038567G85X+106291Y+038468
X+106291Y+033568G85X+106291Y+033467
X+106291Y+028567G85X+106291Y+028468
X+071126Y+006999
X+076206Y+006999
X+050793Y+006999
X+055873Y+006999
X+096541Y+006997
X+091461Y+006997
X+033999Y+038539
X+033999Y+033459
X+035542Y+007000
X+030462Y+007000
X+106291Y+020568G85X+106291Y+020469
X+106291Y+015570G85X+106291Y+015468
X+106291Y+010568G85X+106291Y+010469
X+080461Y+056997
X+085541Y+056997
T13
X+103944Y+045999
X+106228Y+045999
X+108539Y+045999
T14
X+003999Y+014999
X+024954Y+014999
M30
